<?xml version="1.0" standalone="no"?>
<!DOCTYPE svg PUBLIC "-//W3C//DTD SVG 20010904//EN"
 "http://www.w3.org/TR/2001/REC-SVG-20010904/DTD/svg10.dtd">
<svg version="1.0" xmlns="http://www.w3.org/2000/svg"
 width="656.000000pt" height="656.000000pt" viewBox="0 0 656.000000 656.000000"
 preserveAspectRatio="xMidYMid meet">
<metadata>
Created by potrace 1.11, written by Peter Selinger 2001-2013
</metadata>
<g transform="translate(0.000000,656.000000) scale(0.100000,-0.100000)"
fill="#000000" stroke="none">
<path d="M2319 5993 c0 -5 -2 -840 -4 -1858 -2 -1017 -6 -1866 -9 -1885 -3
-19 -8 -55 -11 -80 -46 -374 -147 -528 -390 -596 -150 -42 -365 -34 -487 19
-16 7 -28 15 -28 19 0 5 -7 8 -16 8 -17 0 -89 54 -134 102 -128 133 -194 356
-213 713 -2 38 -4 40 -32 39 -37 -1 -156 -13 -185 -19 -12 -2 -41 -5 -66 -6
-24 -2 -44 -5 -44 -8 0 -3 -17 -6 -37 -6 -21 0 -69 -4 -108 -9 -38 -4 -83 -10
-100 -12 -16 -1 -48 -5 -70 -8 -22 -3 -65 -8 -95 -11 -30 -3 -68 -7 -85 -10
-16 -2 -55 -7 -85 -10 -97 -10 -91 -1 -85 -133 8 -193 21 -288 62 -472 28
-129 92 -311 135 -383 15 -26 25 -47 23 -47 -7 0 39 -70 103 -158 48 -66 148
-173 214 -228 145 -122 385 -235 593 -279 105 -23 136 -28 255 -41 71 -8 380
-8 445 1 28 3 68 8 90 9 120 11 342 62 445 103 8 3 18 5 23 5 4 -1 7 3 7 8 0
6 7 10 17 10 39 0 243 123 353 213 79 64 239 232 251 262 2 6 25 42 52 82 26
39 47 76 47 81 0 5 7 15 15 22 9 7 13 15 11 18 -3 2 5 25 18 51 41 82 74 182
102 304 1 4 2 8 4 10 1 1 3 11 4 22 2 17 6 39 21 111 10 48 27 222 41 434 2
41 7 3468 4 3598 l0 22 -525 0 c-289 0 -525 -3 -526 -7z"/>
<path d="M3714 5992 c3 -5 5 -46 5 -93 0 -46 1 -100 2 -119 1 -19 1 -42 0 -50
0 -8 0 -51 0 -95 0 -44 0 -87 0 -95 -1 -8 0 -51 0 -95 1 -44 1 -87 0 -95 -1
-8 -1 -31 0 -50 1 -19 1 -42 0 -50 0 -8 0 -51 0 -95 0 -85 0 -98 -2 -117 -1
-12 0 -120 1 -223 1 -41 10 -60 52 -106 13 -14 50 -57 83 -94 33 -38 69 -78
80 -89 11 -12 52 -57 90 -101 74 -85 85 -96 223 -251 28 -32 68 -76 86 -98
l35 -39 -27 -27 c-15 -15 -47 -51 -72 -79 -25 -29 -58 -67 -75 -85 -52 -57
-98 -108 -170 -191 -38 -44 -79 -89 -90 -101 -11 -11 -47 -52 -80 -89 -33 -38
-77 -87 -97 -109 -37 -41 -40 -48 -37 -131 1 -22 1 -47 0 -55 0 -8 0 -51 0
-95 0 -44 0 -87 0 -95 -1 -8 0 -51 0 -95 1 -44 1 -87 0 -95 -1 -8 -1 -31 0
-50 1 -19 1 -42 0 -50 0 -8 0 -51 0 -95 0 -44 0 -87 0 -95 -1 -8 0 -51 0 -95
1 -44 1 -86 0 -92 -1 -13 -1 -18 -2 -93 0 -55 0 -53 1 -117 2 -58 8 -59 50 -9
14 17 36 43 50 58 14 14 45 50 70 79 25 29 57 65 73 82 15 16 46 52 70 79 23
27 56 64 72 82 17 17 50 54 75 82 74 83 174 196 190 214 55 63 139 157 160
180 28 32 125 140 155 174 11 13 50 56 86 97 36 41 90 101 119 134 30 33 59
65 64 71 6 6 38 42 71 80 33 37 101 114 150 169 50 56 122 136 160 179 39 44
75 84 80 90 89 98 88 97 68 115 -10 10 -43 46 -73 81 -77 89 -81 93 -157 178
-37 42 -75 83 -83 92 -8 8 -37 42 -65 74 -27 33 -63 73 -80 91 -16 17 -59 65
-95 105 -36 41 -72 81 -80 90 -8 9 -46 52 -85 96 -82 93 -122 138 -150 168
-11 12 -67 75 -125 141 -58 66 -114 129 -125 141 -19 19 -129 142 -168 188
-43 49 -134 152 -162 182 -16 17 -55 60 -85 95 -30 34 -62 70 -70 79 -8 9 -39
45 -69 78 -38 44 -62 62 -78 62 -13 0 -22 -4 -19 -8z"/>
</g>
</svg>
