<svg xmlns="http://www.w3.org/2000/svg" viewBox="0 0 507.07 364.15"><defs><style>.cls-1{fill:#bbbdbf;}.cls-2,.cls-6,.cls-7{fill:none;}.cls-2,.cls-6{stroke:#2ce5b5;}.cls-2,.cls-3,.cls-6,.cls-7{stroke-miterlimit:10;}.cls-2,.cls-3{stroke-width:4px;}.cls-3,.cls-8{fill:#24aee4;}.cls-3,.cls-7{stroke:#fff;}.cls-4{fill:#4275f4;}.cls-5{fill:#fff;}.cls-6{stroke-width:6px;}.cls-7{stroke-width:2px;}</style></defs><title>Artboard 123 copy 42</title><g id="BG"><ellipse class="cls-1" cx="256.47" cy="340.73" rx="32.49" ry="6.29"/><line class="cls-2" x1="211.09" y1="313.36" x2="301.85" y2="246.69"/><circle class="cls-3" cx="308.31" cy="241.85" r="11.59"/><line class="cls-2" x1="194.7" y1="233.07" x2="311.28" y2="317.53"/><line class="cls-2" x1="328.16" y1="279.18" x2="186" y2="279.18"/><circle class="cls-3" cx="186" cy="279.18" r="11.59"/><circle class="cls-3" cx="324.67" cy="279.18" r="8.26"/><circle class="cls-3" cx="211.09" cy="313.36" r="8.26"/><circle class="cls-3" cx="310.13" cy="317.53" r="13.41"/><circle class="cls-3" cx="201.15" cy="236.95" r="15.16"/></g><g id="content"><path class="cls-4" d="M257.54,313.68A34.49,34.49,0,1,1,292,279.18,34.53,34.53,0,0,1,257.54,313.68Z"/><path class="cls-5" d="M257.54,246.69a32.49,32.49,0,1,1-32.49,32.49,32.49,32.49,0,0,1,32.49-32.49m0-4A36.49,36.49,0,1,0,294,279.18a36.53,36.53,0,0,0-36.49-36.49Z"/><rect class="cls-6" x="152.81" y="52.7" width="213.33" height="116.1" rx="11.58" ry="11.58"/><polyline class="cls-6" points="155.42 56.96 259.47 110.75 362.97 56.34"/></g><g id="highlights"><line class="cls-7" x1="245.21" y1="288.78" x2="255.33" y2="271.25"/><line class="cls-7" x1="264.96" y1="290.95" x2="248.41" y2="290.95"/><line class="cls-7" x1="259.71" y1="271.18" x2="268.05" y2="285.61"/><circle class="cls-5" cx="245.21" cy="290.95" r="6.17"/><circle class="cls-5" cx="257.54" cy="267.42" r="6.17"/><circle class="cls-5" cx="269.88" cy="290.95" r="6.17"/><path class="cls-4" d="M242.82,179.32v-31h8.66V133.54a6.83,6.83,0,1,1,13.66,0v14.81h8.66v31Z"/><path class="cls-5" d="M258.3,129.21a4.34,4.34,0,0,1,4.33,4.33v17.31h8.66v26h-26v-26H254V133.54a4.34,4.34,0,0,1,4.33-4.33m0-5a9.34,9.34,0,0,0-9.33,9.33v12.31h-8.66v36h36v-36h-8.66V133.54a9.34,9.34,0,0,0-9.33-9.33Z"/><path class="cls-4" d="M251.47,226.93V208a15.55,15.55,0,0,1-8.66-13.85V183h31v11.16A15.55,15.55,0,0,1,265.13,208v18.95Z"/><path class="cls-5" d="M271.28,185.48v8.66a13,13,0,0,1-8.66,12.2v18.09H254V206.34a13,13,0,0,1-8.66-12.2v-8.66h26m5-5h-36v13.66A18,18,0,0,0,249,209.45v20h18.66v-20a18,18,0,0,0,8.66-15.32V180.48Z"/><path class="cls-8" d="M250.89,90.85a4.25,4.25,0,0,1-4.23-3.69l-1.15-8a28.78,28.78,0,0,1-4.1-2.38l-7.59,3a4.4,4.4,0,0,1-1.55.29,4.25,4.25,0,0,1-3.75-2.2l-7.1-12.28a4.3,4.3,0,0,1,1-5.5l6.44-5c-.08-.86-.12-1.64-.12-2.38s0-1.52.12-2.38l-6.43-5a4.28,4.28,0,0,1-1-5.52l7.12-12.31a4.21,4.21,0,0,1,3.69-2.16,4.26,4.26,0,0,1,1.56.3l7.62,3.06a29.54,29.54,0,0,1,4.09-2.39l1.16-8.08a4.24,4.24,0,0,1,4.22-3.64h14.26a4.24,4.24,0,0,1,4.23,3.69l1.15,8a28.71,28.71,0,0,1,4.1,2.38l7.59-3a4.4,4.4,0,0,1,1.55-.29,4.25,4.25,0,0,1,3.75,2.2l7.1,12.28a4.31,4.31,0,0,1-1,5.5l-6.44,5c.07.72.11,1.53.11,2.38s0,1.66-.11,2.38l6.43,5a4.29,4.29,0,0,1,1.08,5.45l-7.16,12.39a4.21,4.21,0,0,1-3.69,2.16h0a4.26,4.26,0,0,1-1.56-.29l-7.62-3.06a29.58,29.58,0,0,1-4.09,2.39l-1.16,8.08a4.23,4.23,0,0,1-4.22,3.64ZM258,42.72a10,10,0,1,0,10,10A10,10,0,0,0,258,42.72Z"/><path class="cls-5" d="M265.15,17.05a1.74,1.74,0,0,1,1.75,1.5L268.25,28a26.05,26.05,0,0,1,6,3.49l8.88-3.57a1.82,1.82,0,0,1,.62-.11,1.75,1.75,0,0,1,1.55.89L292.46,41a1.8,1.8,0,0,1-.43,2.28l-7.52,5.88a24.59,24.59,0,0,1,0,7L292,62.08a1.8,1.8,0,0,1,.43,2.28L285.33,76.7a1.73,1.73,0,0,1-1.53.91,1.78,1.78,0,0,1-.65-.12l-8.88-3.57a27.39,27.39,0,0,1-6,3.49l-1.35,9.45a1.74,1.74,0,0,1-1.75,1.5H250.89a1.74,1.74,0,0,1-1.75-1.5l-1.35-9.45a26,26,0,0,1-6-3.49l-8.88,3.57a1.82,1.82,0,0,1-.62.11,1.75,1.75,0,0,1-1.55-.89l-7.13-12.34a1.8,1.8,0,0,1,.43-2.28l7.52-5.88a28.28,28.28,0,0,1-.25-3.49,28.28,28.28,0,0,1,.25-3.49L224,43.33a1.76,1.76,0,0,1-.43-2.28l7.13-12.34a1.73,1.73,0,0,1,1.53-.91,1.78,1.78,0,0,1,.65.12l8.88,3.57a27.39,27.39,0,0,1,6-3.49l1.35-9.45a1.74,1.74,0,0,1,1.75-1.5h14.26M258,65.18A12.48,12.48,0,1,0,245.54,52.7,12.49,12.49,0,0,0,258,65.18m7.13-53.13H250.89a6.75,6.75,0,0,0-6.7,5.82l-1,6.76q-1,.56-2.09,1.22l-6.38-2.56a6.81,6.81,0,0,0-2.51-.48,6.74,6.74,0,0,0-5.88,3.44l-7.11,12.3a6.78,6.78,0,0,0,1.66,8.71l5.4,4.22c0,.42,0,.83,0,1.23s0,.81,0,1.23l-5.38,4.21a6.79,6.79,0,0,0-1.74,8.61l0,.05,0,.05,7.11,12.3a6.81,6.81,0,0,0,8.23,3l.08,0,.08,0,6.37-2.56q1,.65,2.1,1.22l1,6.75a6.75,6.75,0,0,0,6.7,5.82h14.26a6.75,6.75,0,0,0,6.7-5.82l1-6.76q1-.56,2.09-1.22l6.38,2.56a6.81,6.81,0,0,0,2.51.48,6.74,6.74,0,0,0,5.88-3.44l7.11-12.3,0-.05,0-.05a6.78,6.78,0,0,0-1.72-8.6l-5.4-4.22c0-.4,0-.81,0-1.23s0-.83,0-1.23l5.38-4.21a6.79,6.79,0,0,0,1.74-8.61l0-.05,0-.05-7.11-12.3a6.81,6.81,0,0,0-8.23-3l-.08,0-.08,0-6.37,2.56q-1-.65-2.1-1.22l-1-6.75a6.75,6.75,0,0,0-6.7-5.82ZM258,60.18a7.48,7.48,0,1,1,7.48-7.48A7.49,7.49,0,0,1,258,60.18Z"/><circle class="cls-5" cx="258.3" cy="51.72" r="9.5"/></g></svg>