<?xml version="1.0" encoding="utf-8"?>
<!DOCTYPE svg PUBLIC "-//W3C//DTD SVG 1.1//EN" "http://www.w3.org/Graphics/SVG/1.1/DTD/svg11.dtd">
<svg version="1.1" id="Layer_2" xmlns="http://www.w3.org/2000/svg" xmlns:xlink="http://www.w3.org/1999/xlink" x="0px" y="0px"
	 width="164px" height="136px" viewBox="0 0 164 136" enable-background="new 0 0 164 136" xml:space="preserve">
<path stroke="null" fill="#2E363F" d="m57.94362048959556,-1.0623170707772256 l26.342887811841138,0 l0,84.29536687181488 c0,11.022306528599787 -0.9504637569999203,19.502354895221707 -2.8492113082543478,25.4352540041453 c-2.552518378603685,7.7508304592071955 -7.181887264762012,13.97386047336744 -13.888760647298605,18.66731146221875 c-6.706655386262052,4.693228666318558 -15.549892259303054,7.038731386814096 -26.529710619123,7.038731386814096 c-12.88074587381979,0 -22.793254473485703,-3.6827727549771163 -29.737743795272273,-11.052764715586315 c-6.944271325512032,-7.367768735281715 -10.445073498370224,-18.178201890172282 -10.50458648131999,-32.43107714213895 l24.849177338684385,-2.907978728348969 c0.294948959454333,7.651007642003168 1.3897262502005714,13.054112155387342 3.2843318722387154,16.208868895087026 c2.84092744982178,4.797053289112058 7.16270359260238,7.194579482270718 12.963584458145471,7.194579482270718 c5.860175852218315,0 10.00166907595329,-1.709215631769639 12.429057592970286,-5.130314765701897 c2.427170520742457,-3.421099133932258 3.6407557811136853,-10.520302249653916 3.6407557811136853,-21.3004995400907 l0,-86.01747721048392 l0.0002179962745412676,0 z" stroke-width="0"/>
<polygon fill="#C65D5D" points="93,-1 137.49999952316284,48.99999952316284 93,98.99999904632568 93,67.1818175315857 109.18181800842285,48.99999952316284 93,30.81818151473999 "/>
</svg>
