<svg xmlns="http://www.w3.org/2000/svg" width="164" height="136"><title>  background</title><rect height="402" width="582" y="-1" x="-1" fill="none"/><title>  Layer 1</title><path d="m70.8 0.3l26.3 0 0 84.3c0 11-1 19.5-2.8 25.4 -2.6 7.8-7.2 14-13.9 18.7 -6.7 4.7-15.5 7-26.5 7 -12.9 0-22.8-3.7-29.7-11.1 -6.9-7.4-10.4-18.2-10.5-32.4l24.8-2.9c0.3 7.7 1.4 13.1 3.3 16.2 2.8 4.8 7.2 7.2 13 7.2 5.9 0 10-1.7 12.4-5.1 2.4-3.4 3.6-10.5 3.6-21.3l0-86 0 0z" fill="#2E363F"/><polygon points="105.8 0.4 150.3 50.4 105.8 100.4 105.8 68.6 122 50.4 105.8 32.2 " fill="#C65D5D"/></svg>