<svg xmlns="http://www.w3.org/2000/svg" width="1265" height="791" viewBox="0 0 1265 791"><style>.a{ fill:#0084ff; } .b{ fill:#0287ff; } .c{ fill:#058aff; } .d{ fill:#139cff; } .e{ fill:#dbdbdb; } .f{ fill:#8c8c8c; } .g{ fill:#818181; } .h{ fill:#0f547c; } .i{ fill:#8f7900; } .j{ fill:#6d5c00; } .k{ fill:#f8d100; } .l{ fill:#423800; }</style><path d="M0 0h173c-17 21-35 40-51 62-36 48-65 102-83 160C-5 349 2 493 57 616c28 65 69 124 118 175H0V0z" class="a"/><path d="M173 0h29c-38 39-73 82-100 129-53 94-78 204-69 311 6 67 24 132 54 192 29 60 70 112 117 159h-29c-49-51-90-110-118-175C2 493-5 349 39 222c18-58 47-112 83-160 16-22 34-41 51-62z" class="b"/><path d="M202 0h29c-15 18-34 33-49 51-74 86-122 195-129 309-10 124 30 250 105 348 21 31 48 57 75 83h-29c-47-47-88-99-117-159-30-60-48-125-54-192-9-107 16-217 69-311 27-47 62-90 100-129z" class="c"/><path d="M231 0h32C173 74 106 178 83 293c-26 115-6 237 50 340 29 55 69 104 115 145 5 4 11 8 15 13h-30c-27-26-54-52-75-83C83 610 43 484 53 360c7-114 55-223 129-309 15-18 34-33 49-51z" fill="#078dff"/><path d="M263 0h21c-49 40-93 85-125 139-64 103-89 231-64 350 23 118 91 224 185 298 2 1 3 2 4 4h-21c-4-5-10-9-15-13-46-41-86-90-115-145-56-103-76-225-50-340C106 178 173 74 263 0z" fill="#0990ff"/><path d="M284 0h33c-46 34-88 74-122 121-72 101-103 230-82 352 17 102 70 198 146 269 18 18 39 34 59 49h-34c-1-2-2-3-4-4-94-74-162-180-185-298-25-119 0-247 64-350 32-54 76-99 125-139z" fill="#0b92ff"/><path d="M317 0h38c-46 29-88 65-123 107-89 107-126 257-92 393 28 119 108 223 211 288l3 3h-36c-20-15-41-31-59-49-76-71-129-167-146-269-21-122 10-251 82-352 34-47 76-87 122-121z" fill="#0d95ff"/><path d="M355 0h50c-46 25-90 56-127 94-43 44-77 98-98 156-26 70-33 147-20 221 22 120 97 228 200 293 15 10 30 18 45 27h-51l-3-3c-103-65-183-169-211-288-34-136 3-286 92-393 35-42 77-78 123-107z" fill="#1098ff"/><path d="M405 0h41c-45 20-88 44-124 77-91 76-148 190-150 309-2 62 12 125 38 182 28 60 71 114 123 155 34 28 73 49 113 68h-41c-15-9-30-17-45-27-103-65-178-173-200-293-13-74-6-151 20-221 21-58 55-112 98-156 37-38 81-69 127-94z" class="d"/><path d="M446 0h48c-48 17-95 38-136 69-59 44-108 103-137 171-27 62-37 131-30 198 8 69 34 135 75 191 42 58 99 105 164 136 20 11 43 17 63 26h-47c-40-19-79-40-113-68-52-41-95-95-123-155-26-57-40-120-38-182 2-119 59-233 150-309 36-33 79-57 124-77z" fill="#159eff"/><path d="M494 0h254c17 7 36 11 53 18 64 25 122 64 167 116 81 90 119 218 94 337-20 102-83 194-169 253-7 7-6-5-7-9 0-4 1-9-2-11 0-22 2-43 2-64 4 9-1 21 2 31-2 11 1 22 0 33 48-34 89-80 117-132 30-56 45-119 45-182-2-65-20-130-54-186C934 100 822 29 703 11 586-9 461 21 367 94c-51 39-92 90-118 148s-38 122-32 185c9 115 76 222 172 285 2-9-1-19 1-28h1v1c0 3 0 6 1 9v3c0 3-1 7 1 10v1c0 3 0 6 1 9v13c-2 6 2 14 9 12 22 1 45 1 67 2 4 0 11 1 12-4 4-19 6-39 9-58 1 4 1 9 1 13 2-4 4-7 5-11v3c-2 12-3 25-5 37-2 1-1 3-1 5 0 3-1 6-1 9-2 1-1 3-1 5v3c-1 1-1 3-1 5s-1 5-1 6v3c-1 1-1 2-2 4-2 5 5 8 9 7 26-1 51-2 77-2 5-1 11 0 14-5-1 10-14 4-20 9 40 6 82 7 123 2 0-7 0-15 1-22h1v15c-1 3 3 6 7 5 16 2 33 1 50 1 4-1 10 1 13-3 6-25 10-50 16-75 3-1 7 0 10 0-4 19-7 37-11 56 2 5 8 3 12 3 0 1-1 2-1 2 27-1 53-3 80-2-1 3-5 4-8 6-21 12-44 21-67 30H493c-20-9-43-15-63-26-65-31-122-78-164-136-41-56-67-122-75-191-7-67 3-136 30-198 29-68 78-127 137-171 41-31 88-52 136-69z" fill="#17a2ff"/><path d="M748 0h62c28 13 56 26 82 43 104 66 180 179 194 303 18 128-33 261-127 349-22 21-46 41-73 56 1-12-1-24 0-36 1 4 0 16 7 9 86-59 149-151 169-253 25-119-13-247-94-337-45-52-103-91-167-116-17-7-36-11-53-18z" fill="#159fff"/><path d="M810 0h48c57 32 112 71 153 123 80 96 116 227 92 350-22 121-100 229-204 294-13 9-28 16-42 24h-66c23-9 46-18 67-30 3-2 7-3 8-6-27-1-53 1-80 2 0 0 1-1 1-2 32-2 64-2 95-7 2-15 0-30 2-44 3 2 2 7 2 11-1 12 1 24 0 36 27-15 51-35 73-56 94-88 145-221 127-349-14-124-90-237-194-303-26-17-54-30-82-43z" class="d"/><path d="M858 0h41c58 36 112 83 151 140 71 101 98 231 70 352-24 112-94 212-188 277-11 8-22 14-33 22h-42c14-8 29-15 42-24 104-65 182-173 204-294 24-123-12-254-92-350-41-52-96-91-153-123z" fill="#1099ff"/><path d="M899 0h28c13 11 29 20 42 32 92 74 157 183 173 301 10 69 4 141-19 207-20 61-53 117-96 164-29 34-63 61-99 87h-29c11-8 22-14 33-22 94-65 164-165 188-277 28-121 1-251-70-352-39-57-93-104-151-140z" fill="#0e96ff"/><path d="M927 0h29c44 34 86 73 118 119 73 100 105 230 84 353-20 123-91 236-191 310-3 3-7 6-10 9h-29c36-26 70-53 99-87 43-47 76-103 96-164 23-66 29-138 19-207-16-118-81-227-173-301-13-12-29-21-42-32z" fill="#0d94ff"/><path d="M956 0h29c15 15 33 27 47 42 84 83 138 195 148 313 11 115-23 233-91 326-19 28-41 53-65 76-12 12-27 22-39 34h-28c3-3 7-6 10-9 100-74 171-187 191-310 21-123-11-253-84-353-32-46-74-85-118-119z" fill="#0a91ff"/><path d="M985 0h27c9 10 20 18 30 27 48 48 88 105 115 167 54 122 57 265 7 389-32 80-86 151-152 208h-27c12-12 27-22 39-34 24-23 46-48 65-76 68-93 102-211 91-326-10-118-64-230-148-313-14-15-32-27-47-42z" fill="#088fff"/><path d="M1012 0h26c20 23 44 43 62 68 83 103 126 239 115 372-10 117-62 230-143 315-10 13-24 23-35 36h-25c66-57 120-128 152-208 50-124 47-267-7-389-27-62-67-119-115-167-10-9-21-17-30-27z" fill="#068cff"/><path d="M1038 0h25c45 45 84 97 113 154 57 111 73 241 45 362-19 80-57 156-108 220-15 20-34 37-51 55h-25c11-13 25-23 35-36 81-85 133-198 143-315 11-133-32-269-115-372-18-25-42-45-62-68z" class="c"/><path d="M1063 0h28c43 47 82 99 109 157 58 119 71 260 34 388-18 62-46 121-84 174-17 26-39 48-58 72h-30c17-18 36-35 51-55 51-64 89-140 108-220 28-121 12-251-45-362-29-57-68-109-113-154z" class="b"/><path d="M1091 0h174v791h-173c19-24 41-46 58-72 38-53 66-112 84-174 37-128 24-269-34-388-27-58-66-110-109-157z" class="a"/><path d="M367 94C461 21 586-9 703 11c119 18 231 89 293 193 34 56 52 121 54 186 0 63-15 126-45 182-28 52-69 98-117 132 1-11-2-22 0-33 1 3 1 7 2 11 49-39 90-90 114-148 24-57 33-120 26-182-9-65-36-128-77-180-36-45-82-82-134-108C703 7 560 6 444 65c-108 53-191 160-207 281-10 65-1 133 26 193 26 58 68 109 118 148 2 1 4 3 6 3 0-10 1-20 1-30h1v3c0 3 0 6 1 8v13c-2 9 1 19-1 28-96-63-163-170-172-285-6-63 6-127 32-185s67-109 118-148z" fill="#1aa5ff"/><path d="M444 65C560 6 703 7 819 64c52 26 98 63 134 108 41 52 68 115 77 180 7 62-2 125-26 182-24 58-65 109-114 148-1-4-1-8-2-11-3-10 2-22-2-31-1-5 3-13-3-14 0 0-1-1-2-1-3-1-5-2-8-2 4-4 9 0 13 1 7 10 0 23 5 34 45-37 80-87 101-141 24-65 29-137 12-204-28-114-119-208-228-249-107-41-233-34-334 21-58 31-107 77-141 134-29 47-46 100-50 155-8 112 45 223 132 292 6-8 1-20 3-29h1v2c0 3 0 5 1 8v13c0 10-1 20-1 30-2 0-4-2-6-3-50-39-92-90-118-148-27-60-36-128-26-193 16-121 99-228 207-281z" fill="#1ca7ff"/><path d="M442 85c101-55 227-62 334-21 109 41 200 135 228 249 17 67 12 139-12 204-21 54-56 104-101 141-5-11 2-24-5-34 4-1 4 5 6 6 77-72 116-184 97-289-10-56-35-109-72-153C829 81 678 35 544 68 429 94 328 178 290 291c-22 62-25 130-5 193 17 59 50 113 97 153 1-12 0-24 1-36h1v4c0 3-1 6 1 9v1c0 3 0 6 1 9v13c-2 9 3 21-3 29-87-69-140-180-132-292 4-55 21-108 50-155 34-57 83-103 141-134z" fill="#1eaaff"/><path d="M544 68c134-33 285 13 373 120 37 44 62 97 72 153 19 105-20 217-97 289-2-1-2-7-6-6-4-1-9-5-13-1-14-4-27-8-40-11 10-4 22 6 33 2 40-38 70-87 85-141 17-60 14-124-9-182-23-60-66-112-120-147-93-63-218-74-322-31-70 29-131 82-165 150 24-1 48-3 72-4-17 3-35 4-52 6-5 1-11 1-14 5-3 0-1 2 0 3 1 4 6 6 9 8 19 10 39 20 58 30-14-4-26-13-41-18-11-7-27-8-36-20-20 40-28 85-28 130 2 69 29 137 76 188-1-5-1-13 6-13 6 1 14-1 18 3h-10c-4-1-7-1-11-1 0 4 0 7 1 11v10c-1 12 0 24-1 36-47-40-80-94-97-153-20-63-17-131 5-193C328 178 429 94 544 68z" fill="#21aeff"/><path d="M500 113c104-43 229-32 322 31 54 35 97 87 120 147 23 58 26 122 9 182-15 54-45 103-85 141-11 4-23-6-33-2-9-3-19-4-27-8 4-4 10 0 15 0 42-32 73-77 90-127 17-52 18-110 1-162-9 1-16 6-24 7 12-7 26-12 38-20 3-1 6-9 1-7h-1c-3-4-9-4-13-4-20-3-40-5-60-7-7 0-17-1-17-10-13-56-50-105-99-134-52-31-119-38-176-17-59 20-107 68-128 127-3 12-17 7-26 9-24 1-48 3-72 4 34-68 95-121 165-150z" fill="#25b2fd"/><path d="M561 123c57-21 124-14 176 17 49 29 86 78 99 134 0 9 10 10 17 10 20 2 40 4 60 7 4 0 10 0 13 4-30-2-60-7-90-10-5-14-7-29-13-42-10-24-24-46-43-65 0-3-2-5-5-5-30-30-70-49-111-56-1 0-4-1-6-1-3 0-5-1-8-1h-3c-11-1-23-3-34 0h-1c-3 0-6 0-8 1-2 0-5 1-6 1-75 12-140 67-163 139-1 3-4 5-8 4-29 3-57 7-86 10 3-4 9-4 14-5 17-2 35-3 52-6 9-2 23 3 26-9 21-59 69-107 128-127z" fill="#1e7dac"/><path d="M613 115c11-3 23-1 34 0h-34z" fill="#214a60"/><path d="M604 116c2-1 5-1 8-1-2 1-5 1-8 1z" fill="#194157"/><path d="M612 115h38c3 0 5 1 8 1 2 0 5 1 6 1 41 7 81 26 111 56 1 2 3 4 5 5 19 19 33 41 43 65 6 13 8 28 13 42 30 3 60 8 90 10h1c2 1-1 2-2 3-27 13-53 28-79 41-4 2-11 4-9 10-8 63-47 122-103 153-2 1-5 2-7 4-19 10-39 16-60 20-2 0-4-1-5 1-2 0-4 0-5 1h-4c-3 0-6-1-9 1h-16c-14 1-28-1-42-4-2-1-4-2-6-2h-1c0-3-1-6-1-9 8 2 15 4 23 5 1 2 3 1 5 1h2c1 1 3 1 4 1h6c9 1 18 2 26 0h3c1 0 5-1 6-1h3c1 0 3 0 4-1 73-11 133-72 144-145 2-1 1-3 1-5v-2c0-1 1-5 1-6v-3c1-8 2-16 0-24v-3c0-1-1-5-1-6v-3c0-2 1-4-1-5v-1c0-1 0-3-1-4-11-55-49-104-100-126-4 4-6 10-9 15-2 3-5 7-6 11 15 2 26 15 29 29v12c-3 15-15 27-30 30h-11c-9-1-16-6-23-12-3 5-6 10-9 16-2 3-4 7-6 10-1 3-4 3-5 0-2-3-3-6-5-9-3-5-5-12-10-16-6 6-13 9-21 11h-11c-15-2-26-13-30-27 0-1 1-3-1-4v-7c0-1 1-5 1-6 3-12 12-23 24-27 8 0 0-7-2-11-4-6-6-15-12-18-54 21-96 71-107 128-1 1-1 3-1 4v3c-2 1-1 3-1 5v1c0 1-1 5-1 6v4c-1 8-2 16 0 23v9c0 1 0 3 1 4 0 2 1 5 1 7 0 1 0 3 1 4 3 15 8 29 14 42-4 6-6 15-11 20-2-3-3-5-5-8-16-24-26-52-31-81 1-3 1-5-1-7 0-4-1-7-1-11-2-6 3-16-2-21-27-14-54-29-81-42-1-1-3-3 0-3 29-3 57-7 86-10 4 1 7-1 8-4 23-72 88-127 163-139 1 0 4-1 6-1 3 0 6 0 8-1z" fill="#010102"/><path d="M650 115c3 0 5 1 8 1-3 0-5-1-8-1z" fill="#224e66"/><path d="M598 117c1 0 4-1 6-1-2 0-5 1-6 1z" fill="#1c4053"/><path d="M658 116c2 0 5 1 6 1-1 0-4-1-6-1z" fill="#224a5e"/><path d="M758 142c63 26 116 76 147 137 1 3 1 8-5 4-20-1-40 0-59-5-10-40-28-78-57-108-8-9-18-16-26-25-2-1-1-2 0-3z" fill="#28b7ff"/><path d="M775 173c3 0 5 2 5 5-2-1-4-3-5-5z" fill="#1e4254"/><path d="M459 311c11-57 53-107 107-128 6 3 8 12 12 18-9 4-23 5-32 13-25 18-29 57-10 80 20 27 65 27 86 1 2-2 3-5 6-7 2 3 3 6 5 9-22 12-45 22-68 33 24 19 43 44 65 65 1 1 2 4 4 3 20-19 40-38 61-57 2-3 6-5 9-7-22-13-44-24-66-37 2-3 4-7 6-10 10 15 26 27 45 28 34 3 63-29 60-61-3-26-24-48-49-50-2-1-6 0-6-3 3-5 5-11 9-15 51 22 89 71 100 126 0 1 0 3 1 4v1c0 2-1 4 1 5v3c0 1 1 5 1 6v30c0 1-1 5-1 6v2c-2 1-1 3-1 5-11 73-71 134-144 145-1 0-3-1-4 1h-3c-1 0-5 1-6 1h-35c-1-1-3-1-4-1h-2c-1-2-3-1-5-1-8-1-15-3-23-5-7-27-19-53-35-75-11-14-24-29-42-33-3-1-6-2-9 0-9 3-13 11-19 17-6-13-11-27-14-42 0-1 0-3-1-4 0-2-1-5-1-7v-4c0-2 0-4-1-5v-4-23-4c0-1 1-5 1-6v-1c2-1 1-3 1-5v-3c1-1 1-3 1-4z" fill="#fefefe"/><path d="M578 201c2 4 10 11 2 11-12 4-21 15-24 27 0 1-1 5-1 6v7c0 1 0 3 1 4 4 14 15 25 30 27 4 1 8 1 11 0 8-2 15-5 21-11 5 4 7 11 10 16-3 2-4 5-6 7-21 26-66 26-86-1-19-23-15-62 10-80 9-8 23-9 32-13zM688 212c1-4 4-8 6-11 0 3 4 2 6 3 25 2 46 24 49 50 3 32-26 64-60 61-19-1-35-13-45-28 3-6 6-11 9-16 7 6 14 11 23 12 4 1 8 1 11 0 15-3 27-15 30-30 1-4 2-8 0-12-3-14-14-27-29-29z" class="e"/><path d="M555 245c0-1 1-5 1-6 0 1-1 5-1 6z" fill="#4d4d4d"/><path d="M717 241c2 4 1 8 0 12v-12z" class="f"/><path d="M555 252c2 1 1 3 1 4-1-1-1-3-1-4z" fill="#6f6f6f"/><path d="M303 403c0-45 8-90 28-130 9 12 25 13 36 20-3 1-7-3-8 1-21 51-26 108-13 161 10 46 33 88 65 122 5 4 12 2 14 6h-7c-3-1-7-1-10-1h-5v-1c-4-4-12-2-18-3-7 0-7 8-6 13-47-51-74-119-76-188z" fill="#25b3ff"/><path d="M341 273c27 13 54 28 81 42 2 7 0 14 2 21 0 4 1 7 1 11-1 3-1 5 1 7 5 29 15 57 31 81 1 3-2 4-4 4-7-2-14-4-21-5-5-1-10-2-14 0-6 2-14 4-15 11-1 3-2 6 0 9 4 13 13 23 22 33-4 10-14 17-16 28-2 2-2 4 0 6 22 26 56 38 89 44 1 0 5 1 6 1h3c7 1 14 1 21 0 20-2 42-10 51-29 1-3 1-7 1-10 2-2 4-2 6-2 14 3 28 5 42 4 0 1 1 1 1 2 24 24 57 38 87 55 2 2 5 3 7 0 9-3 17-7 24-13 2-2 5 0 7 1 12 4 24 9 36 11 3 1 7 1 10 0 10-5 2-20 1-28 0-1 1-2 1-3h2c1 0 5 1 6 1h8c-3 5-10 1-13 5 1 8 6 16 1 23-3 5-9 6-15 6-14-3-27-9-40-13-12 4-22 16-36 12-22-10-43-22-63-35-10-5-17-14-27-20-12-2-24-2-35-4-8-3-8 6-9 10-9 15-25 25-41 28-28 4-57 0-82-11-18-7-36-16-50-31-5-13 5-24 12-34 4-5-3-9-6-12-6-7-9-16-14-22-2-8-1-17 7-21 7-6 15-5 24-5 6 1 12 3 19 4 3-3-1-6-2-9-19-32-27-70-28-107-2-4-8-6-12-8-19-10-39-20-58-30-3-2-8-4-9-8z" fill="#2a86a5"/><path d="M586 283h11c-3 1-7 1-11 0zM676 283h11c-3 1-7 1-11 0z" class="g"/><path d="M359 294c1-4 5 0 8-1 15 5 27 14 41 18 4 2 10 4 12 8 1 37 9 75 28 107 1 3 5 6 2 9-7-1-13-3-19-4 3-6 13 2 15-2-13-25-25-53-27-81-2-10 0-20-4-28-9-6-19-10-30-13-27 65-22 142 13 203 0 2 2 0 2-1 5-7 10-13 15-20-1-3-4-5-1-7 2 2 6 5 3 8-6 10-16 21-12 33 10 15 27 24 43 32 36 16 80 25 116 5l1 1c-23 14-50 15-76 11-6-1-13-5-16 3 7 11 21 7 31 12 4 3 2 8 4 12 8 5 17 7 25 11 15 5 31 5 46 8 8 3 2-14 11-11v1h-2c-2 3-1 9-1 14-2 5-5-2-8-1h-7c-2-2-5-2-7-1h-2c-3-1-6-1-9-1h-3c-2-2-5-2-7-1h-3c-3-1-5-1-8-1h-3c-2-2-5-2-7-1h-3c-3-1-5-1-8-1s-6-1-5 3c-1 1-1 3-1 5v3c-2 1-1 3-1 5v1c-2 1-1 3-1 5 0 3-1 6-1 9-2 1-1 3-1 5v3c-2 1-1 3-1 5 0 3-1 6-1 9-2 1-1 3-1 5v3c-1 1-1 3-1 4v2s-1 1-1 2c-1 4-3 7-5 11 0-4 0-9-1-13 2-16 6-31 6-47 1-13 3-26 6-39 0-2-1-5-3-6h-1c-1-1-4-1-6-1-3-1-7-1-10-1h-5c-3-1-6-1-9-1h-1c-3-1-7-1-10-1h-5c-3 0-5-1-8-1h-2c-3-1-7-1-10-1h-5c-1-1-2-1-3-1-2-4-9-2-14-6-32-34-55-76-65-122-13-53-8-110 13-161z" fill="#29b6fc"/><path d="M927 295c5-2 2 6-1 7-12 8-26 13-38 20-13 5-24 14-36 17 23-16 51-24 73-41 1-1 4-2 2-3z" fill="#229bd7"/><path d="M565 330c23-11 46-21 68-33 1 3 4 3 5 0 22 13 44 24 66 37-3 2-7 4-9 7-21 19-41 38-61 57-2 1-3-2-4-3-22-21-41-46-65-65z" fill="#ffd704"/><path d="M846 339c26-13 52-28 79-41-22 17-50 25-73 41-8 2-14 7-13 16-9 58-43 112-93 143-2 2-8 3-7 8 21 8 42 16 61 28 6 6 15 9 19 16 1 1 2 3 0 4-4-8-13-12-20-17-20-13-43-22-65-30v-5c56-31 95-90 103-153-2-6 5-8 9-10z" fill="#2682a5"/><path d="M637 305c16 7 31 19 47 28 1 3-1 4-3 5-14 7-29 14-43 21-3 0-8 1-4-5 2-16-1-34 3-49z" fill="#ffc900"/><path d="M385 307c11 3 21 7 30 13 4 8 2 18 4 28 2 28 14 56 27 81-2 4-12-4-15 2-9 0-17-1-24 5-8 4-9 13-7 21-1 9 8 18 14 25-3 2 0 4 1 7-5 7-10 13-15 20 0 1-2 3-2 1-35-61-40-138-13-203z" fill="#2cbcfe"/><path d="M458 315c0-1 0-3 1-4 0 1 0 3-1 4z" class="g"/><path d="M803 312c1 1 1 3 1 4-1-1-1-3-1-4z" fill="#878787"/><path d="M422 315c5 5 0 15 2 21-2-7 0-14-2-21z" fill="#204c5f"/><path d="M888 322c8-1 15-6 24-7 17 52 16 110-1 162-17 50-48 95-90 127-5 0-11-4-15 0-2 0-2 2-2 4-6 29-12 59-18 88-3 0-7-1-10 0 5-22 9-44 13-67 1-3 1-8-3-8-5 0-10-1-14 1h-13c-6 0-12 0-17 1h-6c-5 1-10-1-15 1h-15c-5 0-11 0-16 1-11-4-7 8-6 14v7c0 5-1 10 1 14v17c-2 7 3 19-4 23 0-5-1-10-2-14-3-18-1-36-4-53-4-11 5-26-5-34h-7c3-3 10-3 13 1 2 8 0 17 4 24 9-5 21-2 31-6 21-7 42-15 60-28-6-3-13-7-20-9-12 5-25 17-39 11-20-11-40-23-60-35-1-1-1-2 0-4 20 13 41 25 63 35 14 4 24-8 36-12 13 4 26 10 40 13 6 0 12-1 15-6 5-7 0-15-1-23 3-4 10 0 13-5l1-1c2-1 1-3 0-4-4-7-13-10-19-16-19-12-40-20-61-28-1-5 5-6 7-8 50-31 84-85 93-143-1-9 5-14 13-16 12-3 23-12 36-17z" fill="#29b7fc"/><path d="M804 317c2 1 1 3 1 5-2-1-1-3-1-5z" fill="#777"/><path d="M457 323c0-2-1-4 1-5 0 2 1 4-1 5z" fill="#b9b9b9"/><path d="M456 330c0-1 1-5 1-6 0 1-1 5-1 6z" fill="#8e8e8e"/><path d="M805 325c0 1 1 5 1 6 0-1-1-5-1-6z" class="f"/><path d="M456 357c-2-7-1-15 0-23v23z" fill="#848484"/><path d="M806 334c2 8 1 16 0 24v-24z" fill="#585858"/><path d="M873 335c3 1 3 5 4 8 18 70-3 148-51 202-24-15-49-28-76-37-2-2-7-2-6-6 51-32 88-86 98-145 1-4 2-9 6-11 8-4 16-8 25-11z" fill="#2fc0ff"/><path d="M586 343c14 6 27 15 41 22 3 1 6 4 10 3 15-8 31-16 47-23-16 15-34 30-51 44-17-14-32-30-47-46z" fill="#f4a65c"/><path d="M425 347c2 2 2 4 1 7-2-2-2-4-1-7z" fill="#254553"/><path d="M456 361c1 1 1 3 1 5h-1v-5z" fill="#afafaf"/><path d="M805 367c0-1 1-5 1-6 0 1-1 5-1 6z" fill="#8b8b8b"/><path d="M456 366h1v4c-1-1-1-3-1-4z" fill="#4b4b4b"/><path d="M804 374c0-2-1-4 1-5 0 2 1 4-1 5z" fill="#929292"/><path d="M458 377c1 1 1 3 1 4-1-1-1-3-1-4z" fill="#7f7f7f"/><path d="M492 406c3-2 6-1 9 0h-9z" fill="#ffe65f"/><path d="M473 423c6-6 10-14 19-17h9c18 4 31 19 42 33 16 22 28 48 35 75 0 3 1 6 1 9v14c-9 19-31 27-51 29h-24c-1 0-5-1-6-1-33-6-67-18-89-44 1-2 1-4 0-6 2-11 12-18 16-28-9-10-18-20-22-33v-9c1-7 9-9 15-11h14c7 1 14 3 21 5 3 2 6 4 9 4 5-5 7-14 11-20z" fill="#fed701"/><path d="M418 434c4-2 9-1 14 0h-14z" fill="#5a8b6a"/><path d="M457 435c2 3 3 5 5 8-3 0-6-2-9-4 2 0 5-1 4-4z" fill="#2b5454"/><path d="M403 454c-2-3-1-6 0-9v9z" fill="#a2ab3a"/><path d="M400 457c5 6 8 15 14 22 3 3 10 7 6 12-7 10-17 21-12 34 14 15 32 24 50 31 25 11 54 15 82 11 16-3 32-13 41-28 1 9-10 15-17 21-36 20-80 11-116-5-16-8-33-17-43-32-4-12 6-23 12-33 3-3-1-6-3-8-6-7-15-16-14-25z" fill="#26a1d7"/><path d="M727 506c2-2 5-3 7-4v5c-2 0-5-1-7-1z" fill="#2a5457"/><path d="M667 526c21-4 41-10 60-20 2 0 5 1 7 1 22 8 45 17 65 30 7 5 16 9 20 17l-1 1h-8c-1 0-5-1-6-1h-2c-3-3-3 1-1 3 1 8 9 23-1 28h-10c-12-2-24-7-36-11-2-1-5-3-7-1-7 6-15 10-24 13h-7c-30-17-63-31-87-55 5-1 10-1 15-2 3 0 6 0 9-1h4c2 0 4 1 5-1 2 0 4 0 5-1z" fill="#fdd601"/><path d="M409 521c-2-2-2-4 0-6 1 2 1 4 0 6z" fill="#94a646"/><path d="M601 519c2 0 4-1 5 1-2 0-4 1-5-1z" fill="gray"/><path d="M656 520c1-2 3-1 4-1-1 1-3 1-4 1z" fill="#888"/><path d="M608 520c1 0 3 0 4 1-1 0-3 0-4-1z" fill="#6e6e6e"/><path d="M647 521c1 0 5-1 6-1-1 0-5 1-6 1z" fill="#999"/><path d="M618 521h26c-8 2-17 1-26 0z" fill="#757575"/><path d="M579 523h1v4c0 3 0 7-1 10v-14z" fill="#a5a72e"/><path d="M580 523c2 0 4 1 6 2-2 0-4 0-6 2v-4z" fill="#1f4f60"/><path d="M662 527c1-2 3-1 5-1-1 1-3 1-5 1z" fill="#564c18"/><path d="M657 528c1-1 3-1 5-1-1 2-3 1-5 1z" fill="#877518"/><path d="M581 539c1-4 1-13 9-10 11 2 23 2 35 4 10 6 17 15 27 20-1 2-1 3 0 4 20 12 40 24 60 35 14 6 27-6 39-11 7 2 14 6 20 9-18 13-39 21-60 28-10 4-22 1-31 6-4-7-2-16-4-24-3-4-10-4-13-1v1h-5c-1 0-5 1-6 1h-4c-1 0-5 1-6 1h-1c-3-1-5-1-7 1h-3c-1 0-5 1-6 1h-2c-3-1-5-1-7 1h-3c-3-1-5-1-7 1h-1c-1 0-5 1-6 1h-3c-2 0-4-1-6 0-9-3-3 14-11 11-15-3-31-3-46-8-8-4-17-6-25-11-2-4 0-9-4-12-10-5-24-1-31-12 3-8 10-4 16-3 26 4 53 3 76-11l-1-1c7-6 18-12 17-21z" fill="#30c1fe"/><path d="M644 529c3-2 6-1 9-1-3 1-6 1-9 1z" fill="#564c14"/><path d="M628 529h16c-5 1-10 1-15 2 0-1-1-1-1-2z" fill="#a08d17"/><path d="M801 557c-2-2-2-6 1-3 0 1-1 2-1 3z" fill="#556b3c"/><path d="M804 554c1 0 5 1 6 1-1 0-5-1-6-1z" fill="#6d8e54"/><path d="M498 565c1 0 5 1 6 1-1 0-5-1-6-1z" fill="#8fa144"/><path d="M507 566h21c-7 1-14 1-21 0z" fill="#849c4a"/><path d="M382 580c4 0 7 0 11 1h-10v10c-1-4-1-7-1-11z" fill="#156996"/><path d="M383 581h11c3 1 6 1 9 1h5c3 1 7 1 10 1h1c3 1 6 1 9 1h5c3 1 7 1 10 1h2c3 0 5 1 8 1h5c3 1 7 1 10 1h1c3 1 6 1 9 1h5c3 1 7 1 10 1 2 0 5 0 6 1v3c-7 49-15 97-22 146-27-2-54-1-80-3-3-1-3-3-2-6 0-3 0-6-1-9v-4c0-3 1-6-1-9v-1c0-3 0-7-1-10v-3c0-3 0-6-1-9v-1c0-4 0-7-1-10v-3c0-3 0-5-1-8v-3c0-3 0-6-1-9v-4c0-3 0-5-1-8v-2c0-3 0-6-1-9v-4c0-3 1-6-1-9v-1c0-3 0-6-1-9v-4c0-3 1-6-1-9v-1-10z" fill="#000001"/><path d="M394 581h9v1c-3 0-6 0-9-1z" fill="#104d6e"/><path d="M408 582c3 0 7 0 10 1-3 0-7 0-10-1z" fill="#166690"/><path d="M419 583h6c1 0 2 0 3 1-3 0-6 0-9-1z" fill="#114d6c"/><path d="M433 584c3 0 7 0 10 1-3 0-7 0-10-1z" fill="#16668e"/><path d="M445 585c3 0 5 1 8 1-3 0-5-1-8-1z" fill="#125271"/><path d="M790 585h10c-3 1-7 1-10 0z" fill="#afb132"/><path d="M458 586c3 0 7 0 10 1-3 0-7 0-10-1z" fill="#17668d"/><path d="M716 586h7c-2 3-5 2-7 0z" fill="#779a59"/><path d="M469 587c3 0 6 0 9 1-3 0-6 0-9-1z" fill="#114d69"/><path d="M483 588c3 0 7 0 10 1-3 0-7 0-10-1z" fill="#18668b"/><path d="M499 590h1c1 3 1 6 1 9-7 42-13 84-19 126-1 5-2 11-4 16-26-2-54 0-80-4 26 1 53 3 79 2 6-26 9-54 13-80 3-22 8-44 9-66v-3z" class="h"/><path d="M500 590c2 1 3 4 3 6-3 13-5 26-6 39-6 35-10 71-17 106h-2c2-5 3-11 4-16 6-42 12-84 19-126 0-3 0-6-1-9z" fill="#197fb6"/><path d="M383 592c2 3 1 6 1 9h-1v-9z" fill="#115981"/><path d="M499 593c-1 22-6 44-9 66-4 26-7 54-13 80 7-49 15-97 22-146z" fill="#092c40"/><path d="M663 599h7v1h-7v-1z" fill="#0f3c50"/><path d="M670 599c10 8 1 23 5 34 0 31 3 63 3 95 0 4 3 11-2 13-27 1-54-2-81-1-3 0-4-2-5-4h2l1 1c2 2 4 3 7 2 19 0 39-1 58 1 6-1 13 2 19-1 0-38-3-76-4-114-1-7 2-16-2-23h-1v-3z" fill="#197fb7"/><path d="M652 601c1 0 5-1 6-1-1 0-5 1-6 1z" fill="#175e7d"/><path d="M658 600h12v2c1 45 4 90 5 135-28 0-56 0-83-1h-2v-22c0-6 1-13-1-19v-4-22c0-8 1-17-1-25v-17-19h2c2 0 5 0 6-1h3c1 0 5-1 6-1h1c3 1 5 1 7-1h3c3 1 5 1 7-1h2c1 0 5-1 6-1h3c3 1 5 1 7-1h1c1 0 5-1 6-1h4c1 0 5-1 6-1z" fill="#010100"/><path d="M642 602c1 0 5-1 6-1-1 0-5 1-6 1z" fill="#1c7399"/><path d="M634 603c2-2 4-2 7-1-2 2-4 2-7 1z" fill="#165977"/><path d="M670 602h1c1 45 4 91 5 136-28 1-56 0-83-1l-1-1c27 1 55 1 83 1-1-45-4-90-5-135z" fill="#092d40"/><path d="M671 602c4 7 1 16 2 23 1 38 4 76 4 114-6 3-13 0-19 1-19-2-39-1-58-1-3 1-5 0-7-2 27 1 55 2 83 1-1-45-4-91-5-136z" fill="#11567c"/><path d="M625 604c1 0 5-1 6-1-1 0-5 1-6 1z" fill="#1a688b"/><path d="M616 605c2-2 4-2 7-1-2 2-4 2-7 1z" fill="#175d7c"/><path d="M804 608c0-2 0-4 2-4 8 4 18 5 27 8 13 3 26 7 40 11 3 0 5 1 8 2 4 14-1 29 1 44-2 26-1 52-4 77-33 1-66 4-99 6h-4c4-19 7-37 11-56 6-29 12-59 18-88z" fill="#010201"/><path d="M384 605c1 3 1 6 1 9-2-3-1-6-1-9z" fill="#146898"/><path d="M606 606c2-2 4-2 7-1-2 2-4 2-7 1z" fill="#1b7399"/><path d="M599 607c1 0 5-1 6-1-1 0-5 1-6 1z" fill="#165976"/><path d="M590 607c2-1 4 0 6 0-1 1-4 1-6 1v-1z" fill="#186384"/><path d="M587 622c0-5-1-11 1-14v19h-1v-5z" fill="#13506d"/><path d="M385 615c2 3 1 6 1 9-1-3-1-6-1-9z" fill="#10537a"/><path d="M507 618c-1-4 2-3 5-3s5 1 8 1h3c2 2 5 2 7 1h3c3 0 5 1 8 1h3c2 2 5 2 7 1h3c3 1 6 1 9 1h2c2 2 5 2 7 1h7v142c-31 0-61 3-92 2v-5-3c0-1 1-4 1-6 2-1 1-3 1-5v-3c2-1 1-3 1-5 0-3 1-6 1-9 2-1 1-3 1-5 2-12 3-25 5-37 1-1 1-3 1-5v-2c1-1 1-3 1-4v-3c2-1 1-3 1-5 0-3 1-6 1-9 2-1 1-3 1-5v-3c2-1 1-3 1-5 0-3 1-6 1-9 1-1 1-3 1-5v-1c2-1 1-3 1-5v-3c2-1 1-3 1-5z" fill="#000101"/><path d="M512 615c3 0 5 0 8 1-3 0-5-1-8-1z" fill="#17668c"/><path d="M523 616c2-1 5-1 7 1-2 1-5 1-7-1z" fill="#165e80"/><path d="M533 617c3 0 5 0 8 1-3 0-5-1-8-1z" fill="#166083"/><path d="M506 623c0-2 0-4 1-5 0 2 1 4-1 5z" fill="#166389"/><path d="M544 618c2-1 5-1 7 1-2 1-5 1-7-1z" fill="#145878"/><path d="M554 619c3 0 6 0 9 1-3 0-6 0-9-1z" fill="#166081"/><path d="M565 620c2-1 5-1 7 1-2 1-5 1-7-1z" fill="#13526f"/><path d="M579 621c3-1 6 6 8 1v5c0 8-1 17 1 25v17c0 7 0 15 1 22v33c-2-6-2-13-1-20-2-3 3-12-2-11 0 13 0 26-1 39-2-9 0-19-2-28-1-26 1-53-1-79l-3-3v-1z" fill="#24a9ef"/><path d="M772 622c4-2 9-1 14-1 4 6 1 13-1 19-8 40-16 79-24 118-2 5-1 13-7 14h-55c-3 0-6-1-8-4h2c14 5 31 1 46 2 5-2 16 4 18-4 7-33 14-67 22-100 1-14 8-28 6-42 0-5-8 0-11-2h-2z" fill="#146fa7"/><path d="M786 621c4 0 4 5 3 8-4 23-8 45-13 67-6 25-10 50-16 75-3 4-9 2-13 3-17 0-34 1-50-1-4 1-8-2-7-5h1c2 3 5 4 8 4h55c6-1 5-9 7-14 8-39 16-78 24-118 2-6 5-13 1-19z" fill="#1b9cea"/><path d="M579 622l3 3v138h-1c-1-46 1-92-1-137 0-1 0-2-1-2v-2z" fill="#13628c"/><path d="M742 623c5-1 11-1 17-1v1h-17z" fill="#1e84b6"/><path d="M759 622h15c-5 1-10 1-15 1v-1z" fill="#0c3549"/><path d="M774 622c3 2 11-3 11 2l-30 144h-64c0-4 0-8-1-12v-3c0-5 1-10-1-14v-6c0-5 1-10-1-14v-4c0-4 0-9-1-13v-6c0-5 1-10-1-14v-5c0-4 0-8-1-12v-5c0-5 1-10-1-14v-7-13c3 0 8-1 10-1h12c5-1 10 1 15-1h15c4 0 8 0 11-1h12c5 0 10 0 15-1z" fill="#010101"/><path d="M721 624c5-2 10 0 15-1v1h-15z" fill="#1b76a2"/><path d="M736 623h11c-3 1-7 1-11 1v-1z" fill="#0c374c"/><path d="M579 624c1 0 1 1 1 2v137h-1V624z" fill="#051c28"/><path d="M690 625c5-1 11-1 16-1v1h-16z" fill="#208bbd"/><path d="M706 624h15c-5 2-10 0-15 1v-1z" fill="#0e3e54"/><path d="M785 624c2 14-5 28-6 42-8 33-15 67-22 100-2 8-13 2-18 4-15-1-32 3-46-2h62l30-144z" fill="#093550"/><path d="M582 625c2 26 0 53 1 79-1 19 1 40-1 59V625z" fill="#1a83bd"/><path d="M684 639c-1-6-5-18 6-14h4c-2 0-7 1-10 1v13z" fill="#114964"/><path d="M881 625c1 0 2 1 2 1 1 1 1 2 1 3-1 35-2 69-3 104-1 4 1 11-3 13 3-25 2-51 4-77-2-15 3-30-1-44z" fill="#072b43"/><path d="M417 633c-3-8 11-10 14-5-4-1-8-2-12 1-2 21 0 43-1 64-2-18 0-40-1-60z" fill="#3c3300"/><path d="M505 631c0-2-1-4 1-5 0 2 1 4-1 5z" fill="#104763"/><path d="M580 626c2 45 0 91 1 137h-1V626z" fill="#0d405c"/><path d="M883 626c6 1 2 9 3 14 0 21-2 42-2 64-2 14 0 29-2 44-31 5-63 5-95 7-4 0-10 2-12-3h2c30 4 63-3 94-3 4-1 12 0 11-7 0-37 3-75 2-113 0-1 0-2-1-3z" fill="#1276b8"/><path d="M419 629c4-3 8-2 12-1v54c-2-17 0-35-1-52-2-2-14-3-10 5 0 19-1 38 1 57v1h-2v-64z" class="i"/><path d="M587 627h1v25c-2-8-1-17-1-25z" fill="#1d82b3"/><path d="M386 628c1 3 1 6 1 9h-1v-9z" fill="#126392"/><path d="M418 693c1-21-1-43 1-64v64h-1z" class="j"/><path d="M420 635c-4-8 8-7 10-5-3 0-7-1-9 1 0 20 1 40 0 60v1c-2-19-1-38-1-57z" fill="#caaa00"/><path d="M884 629c1 38-2 76-2 113 1 7-7 6-11 7-31 0-64 7-94 3h2c33 0 66-3 99-6 4-2 2-9 3-13 1-35 2-69 3-104z" fill="#0c517e"/><path d="M421 631c2-2 6-1 9-1 1 17-1 35 1 52 8 9 22 2 33 4v6c-14 0-29 1-43-1 1-20 0-40 0-60z" class="k"/><path d="M504 637c0-2-1-4 1-5 0 2 0 4-1 5z" fill="#16648b"/><path d="M675 633c3 17 1 35 4 53-1 17 1 35 1 52 0 7-9 5-13 5-24 0-48-1-72-1-3 0-7-3-6-6h1c1 2 2 4 5 4 27-1 54 2 81 1 5-2 2-9 2-13 0-32-3-64-3-95z" fill="#1fa2ed"/><path d="M604 642c-4-10 11-10 14-7-4 0-9 0-12 2-2 21 0 43-1 65-2-18 0-40-1-60z" fill="#2a2400"/><path d="M646 638c0-4 10-5 12-2-3 0-7-1-10 2-3 12 0 25-2 37v-37z" fill="#544700"/><path d="M480 741c7-35 11-71 17-106 0 16-4 31-6 47-3 19-5 39-9 58-1 5-8 4-12 4-22-1-45-1-67-2-7 2-11-6-9-12h1c-1 3-1 5 2 6v1c0 3 5 3 7 3 25 0 50 3 74 1h2z" fill="#1a9beb"/><path d="M606 637c3-2 8-2 12-2l1 2c-4 1-15-3-12 6 1 19-1 39 1 58v1h-2v-65z" fill="#877200"/><path d="M648 638c3-3 7-2 10-2v2h-2c-1 0-5 1-6 1-3 13 0 26-1 39 0 2-5 3-5 0h2s1-1 2-1v-39z" fill="#b29600"/><path d="M658 636c2 20 0 44 1 66h-1v-64-2z" fill="#2a2300"/><path d="M605 702c1-22-1-44 1-65v65h-1z" fill="#5c4d00"/><path d="M607 643c-3-9 8-5 12-6 1 1 2 2 2 4-3-3-10-5-13-1v61c-2-19 0-39-1-58z" fill="#bda000"/><path d="M608 640c3-4 10-2 13 1 8 12 15 25 23 37 0 3 5 2 5 0 1-13-2-26 1-39 1 0 5-1 6-1 2 21 1 42 1 63h-10c-8-12-15-25-23-37-1-2-3-3-5-4l-1-1c-1 0-1-1-2-1v43h-8v-61z" fill="#f6cf00"/><path d="M644 678c3-13-2-29 2-40v40h-2z" fill="#231e00"/><path d="M646 675c2-12-1-25 2-37v39c-1 0-2 1-2 1v-3z" fill="#877100"/><path d="M656 638h2v64h-12c-9-13-16-28-26-40l-1-1v-1c2 1 4 2 5 4 8 12 15 25 23 37h10c0-21 1-42-1-63z" fill="#d0af00"/><path d="M387 639c1 3 1 5 1 8-1-3-1-5-1-8z" fill="#0f527a"/><path d="M588 644c2 8 1 17 1 25h-1v-17-8z" fill="#0a2f42"/><path d="M803 649c-7-7 13-8 13-3-4 1-12-3-13 3z" class="l"/><path d="M840 649c3-8 12-5 18-5 0 1-1 1-1 2-15-8-17 12-26 18 2-5 6-10 9-15z" fill="#322a00"/><path d="M831 664c9-6 11-26 26-18 0 1-1 2-2 3v-1c-16-9-14 17-26 18l-1-1c1 0 2-1 3-1z" fill="#766400"/><path d="M502 651c0-2-1-4 1-5 0 2 1 4-1 5z" fill="#15658e"/><path d="M684 646c2 4 1 9 1 14-2-4-1-9-1-14z" fill="#155d82"/><path d="M803 649c1-6 9-2 13-3 1 0 2 2 2 3-3 0-14-5-12 2 5 9 11 17 17 25-1 14-18 23-18 36h-4c4-13 19-22 19-36-6-9-12-18-17-27z" fill="#967f00"/><path d="M829 666c12-1 10-27 26-18-12-4-14 11-20 18-1 2-5 3-6 0z" fill="#bd9f00"/><path d="M806 651c-2-7 9-2 12-2 3 5 7 11 10 16l1 1c1 3 5 2 6 0 6-7 8-22 20-18v1c-6 9-12 19-18 28 7 11 14 22 21 32 0 1 0 2-1 3h-10c-7-5-8-16-16-21-1-1-2-1-3-2-4 7-9 14-13 21-2 4-7 1-10 2 0-13 17-22 18-36-6-8-12-16-17-25z" fill="#f0ca00"/><path d="M388 651c1 3 1 6 1 9h-1v-9z" fill="#105e8c"/><path d="M501 659c0-2-1-4 1-5 0 2 1 4-1 5z" fill="#0f4a69"/><path d="M526 658c4-3 15-5 14 2h-1v-1c-2-1-9-3-11 1-2 21-1 43-1 64-2-20 0-44-1-66z" class="l"/><path d="M528 660c2-4 9-2 11-1-3 0-7 0-10 1v63c-2-21 0-42-1-63z" fill="#a08700"/><path d="M616 658c1 0 1 1 2 1-2 14-1 29-1 43h-9v-1h8v-43z" fill="#c0a200"/><path d="M529 660c3-1 7-1 10-1v2c-3-1-7-2-9 1v61h9v1h-10v-1-63z" fill="#c9aa00"/><path d="M617 702c0-14-1-29 1-43l1 1v1c-3 13 1 30-2 41z" fill="#221d00"/><path d="M527 724c0-21-1-43 1-64 1 21-1 42 1 63v1h-2z" fill="#6f5f00"/><path d="M530 662c2-3 6-2 9-1v62h-9v-61z" class="k"/><path d="M539 660h1v64h-1v-1-63z" fill="#786600"/><path d="M708 663c1-4 13-4 13 0-4-1-8-2-11 1-2 14-1 30 0 45 0 3 1 6 1 9-3-3-3-9-3-13v-42z" fill="#5a4c00"/><path d="M748 662c4-2 9-1 14-1-1 15 2 33-1 46v-43c0-4-9-3-11 0-2 15-1 30-1 45 0 9-11 12-18 9 6 0 15 0 16-8 2-16 0-32 1-48z" fill="#514400"/><path d="M620 662c10 12 17 27 26 40h-2c-8-13-16-27-24-40z" fill="#7c6900"/><path d="M710 664c3-3 7-2 11-1v43c-2-14 0-28-1-42-4 0-12-1-9 6 2 18-5 39 7 55-3-1-6-4-7-7 0-3-1-6-1-9v-45z" fill="#b49800"/><path d="M750 664c2-3 11-4 11 0h-7c-3 0-5 3-3 6v39c-1 14-22 17-27 5 2 1 4 3 7 4 7 3 18 0 18-9 2-15 1-30 1-45z" fill="#a58b00"/><path d="M389 663c1 3 1 5 1 8-1-2-1-5-1-8z" fill="#0f5683"/><path d="M707 663h1v42c-2-12 0-28-1-42z" fill="#231d00"/><path d="M710 709c-1-15-2-31 0-45v45z" fill="#897300"/><path d="M711 670c-3-7 5-6 9-6 1 14-1 28 1 42 0 1 0 2 1 3 0 2 1 3 2 5 5 12 26 9 27-5 4-14-3-31 3-45h7v45c-1 2-1 3-1 5-2 7-8 14-15 14-2 0-3 0-5 1-7 0-16 1-22-4-12-16-5-37-7-55z" fill="#f5ce00"/><path d="M749 709c0-15-1-30 1-45 0 15 1 30-1 45z" fill="#776500"/><path d="M751 670c-2-3 0-6 3-6-6 14 1 31-3 45v-39z" fill="#d2b100"/><path d="M685 665c1 4 1 8 1 12h-1v-12z" fill="#12587c"/><path d="M721 666c2 13 1 29 1 43-1-1-1-2-1-3v-40z" fill="#201b00"/><path d="M499 673c0-2-1-4 1-5 0 2 1 4-1 5z" fill="#0f4b6d"/><path d="M588 669h1v22c-1-7-1-15-1-22z" fill="#166995"/><path d="M390 674c1 3 1 6 1 10h-1v-10z" fill="#0f5c8d"/><path d="M498 680c0-1 0-3 1-4 0 1 0 3-1 4z" fill="#0e4a6b"/><path d="M820 676c0 14-15 23-19 36-2 0-2 0-2-2 6-12 17-22 21-34z" fill="#443900"/><path d="M685 677h1v5c0 5-1 10 1 14v6c0 4 0 9 1 13v4c0 5-1 10 1 14v20c-1 7-1 15-1 22-41 5-83 4-123-2 6-5 19 1 20-9v-32c1-13 1-26 1-39 5-1 0 8 2 11-1 7-1 14 1 20v12c-1 3 3 6 6 6 24 0 48 1 72 1 4 0 13 2 13-5 0-17-2-35-1-52 1 4 2 9 2 14 7-4 2-16 4-23z" fill="#1ca7fe"/><path d="M431 682h2c8 6 25-2 31 4-11-2-25 5-33-4z" fill="#ba9d00"/><path d="M433 682h31c3 3 0 8 1 11h-1v-1-6c-6-6-23 2-31-4z" fill="#625300"/><path d="M497 684c0-1 1-2 1-2 0 2 0 4-1 5v-3z" fill="#0f4d70"/><path d="M686 682c2 4 1 9 1 14-2-4-1-9-1-14z" fill="#11567b"/><path d="M391 685c1 3 1 6 1 9-1-3-1-6-1-9z" fill="#0c4c75"/><path d="M421 691c14 2 29 1 43 1v1h-43v-2z" fill="#d4b200"/><path d="M831 691c8 5 9 16 16 21-8-2-11-15-16-21z" class="i"/><path d="M419 693h46c-13 2-33 2-46 0z" fill="#393000"/><path d="M589 695c2 6 1 13 1 19h-1v-19z" fill="#092f45"/><path d="M392 697c1 3 1 7 1 10-2-3-1-7-1-10z" fill="#0e5787"/><path d="M687 702c1 4 1 9 1 13-1-4-1-9-1-13z" fill="#115b85"/><path d="M583 704c2 9 0 19 2 28v32c-3 5-9 4-14 5-26 0-51 1-77 2-4 1-11-2-9-7 1 1 2 2 3 2 2 5 8 2 12 3 25-1 51-1 76-3 2 0 6 0 6-3 2-19 0-40 1-59z" fill="#1999ec"/><path d="M393 708c2 3 1 6 1 9-1-3-1-6-1-9z" fill="#0b476e"/><path d="M760 714c0-2 0-3 1-5 1 1 1 5-1 5z" class="j"/><path d="M858 709c3 0 2 5-1 3 1-1 1-2 1-3z" fill="#957e00"/><path d="M589 714h1v22h-1v-12-10z" fill="#126393"/><path d="M688 719c2 4 1 9 1 14-2-4-1-9-1-14z" class="h"/><path d="M394 721c1 3 1 6 1 9h-1v-9z" fill="#0d5789"/><path d="M491 729c0-2-1-4 1-5 0 2 1 4-1 5z" fill="#0e5580"/><path d="M740 729c2-1 3-1 5-1 0 2-4 2-5 1z" fill="#9b8200"/><path d="M397 736c26 2 53 1 80 3-26 1-53-1-79-2h-1v-1z" fill="#072d46"/><path d="M397 737h1c26 4 54 2 80 4-24 2-49-1-74-1-2 0-7 0-7-3z" fill="#1275b6"/><path d="M489 743c0-2-1-4 1-5 0 2 1 4-1 5z" fill="#0e5988"/><path d="M689 739c2 4 1 9 1 14h-1v-14z" fill="#105e8d"/><path d="M488 751c0-2 0-4 1-5 0 2 1 4-1 5z" fill="#0a4366"/><path d="M779 752c33-2 66-5 99-6-33 3-66 6-99 6z" fill="#062b43"/><path d="M487 757c0-1 1-4 1-6 0 2-1 5-1 6z" fill="#0f6196"/><path d="M690 756c1 4 1 8 1 12h-1v-12z" fill="#0c4c74"/><path d="M485 764c1-2 1-3 2-4v5c31 1 61-2 92-2h1c-2 4-8 1-11 2-27 0-54 3-81 1-1 0-2-1-3-2z" fill="#093856"/><path d="M580 763h2c0 3-4 3-6 3-25 2-51 2-76 3-4-1-10 2-12-3 27 2 54-1 81-1 3-1 9 2 11-2z" fill="#116ca8"/></svg>