<svg width="1600" height="929.9999999999999" xmlns="http://www.w3.org/2000/svg">
 <!--Generated by IJSVG (https://github.com/curthard89/IJSVG)-->

 <g>
  <title>background</title>
  <rect fill="#333333" id="canvas_background" height="932" width="1602" y="-1" x="-1"/>
 </g>
 <g>
  <title>Layer 1</title>
  <g stroke="null" id="svg_1" fill="#00AB6B">
   <path stroke="null" id="svg_2" d="m680.956564,233.550825c5.475998,0 9.920286,-4.444288 9.920286,-9.920286c0,-5.475998 -4.444288,-9.920286 -9.920286,-9.920286c-5.475998,0 -9.920286,4.444288 -9.920286,9.920286c0,5.475998 4.444288,9.920286 9.920286,9.920286zm178.565156,0l79.362291,0c5.475998,0 9.920286,-4.444288 9.920286,-9.920286c0,-5.475998 -4.444288,-9.920286 -9.920286,-9.920286l-79.362291,0c-5.475998,0 -9.920286,4.444288 -9.920286,9.920286c0,5.475998 4.444288,9.920286 9.920286,9.920286zm-178.565156,-79.362291c5.475998,0 9.920286,-4.444288 9.920286,-9.920286c0,-5.475998 -4.444288,-9.920286 -9.920286,-9.920286c-5.475998,0 -9.920286,4.444288 -9.920286,9.920286c0,5.475998 4.444288,9.920286 9.920286,9.920286zm178.565156,0l79.362291,0c5.475998,0 9.920286,-4.444288 9.920286,-9.920286c0,-5.475998 -4.444288,-9.920286 -9.920286,-9.920286l-79.362291,0c-5.475998,0 -9.920286,4.444288 -9.920286,9.920286c0,5.475998 4.444288,9.920286 9.920286,9.920286zm138.88401,317.449166l-39.681146,0c-16.408154,0 -29.760859,13.352706 -29.760859,29.760859l0,39.681146c0,16.408154 13.352706,29.760859 29.760859,29.760859l39.681146,0c16.408154,0 29.760859,-13.352706 29.760859,-29.760859l0,-39.681146c0,-16.408154 -13.352706,-29.760859 -29.760859,-29.760859zm9.920286,69.442005c0,5.475998 -4.464129,9.920286 -9.920286,9.920286l-39.681146,0c-5.456158,0 -9.920286,-4.444288 -9.920286,-9.920286l0,-39.681146c0,-5.475998 4.464129,-9.920286 9.920286,-9.920286l39.681146,0c5.456158,0 9.920286,4.444288 9.920286,9.920286l0,39.681146zm-188.485442,-69.442005l-39.681146,0c-16.408154,0 -29.760859,13.352706 -29.760859,29.760859l0,39.681146c0,16.408154 13.352706,29.760859 29.760859,29.760859l39.681146,0c16.408154,0 29.760859,-13.352706 29.760859,-29.760859l0,-39.681146c0,-16.408154 -13.352706,-29.760859 -29.760859,-29.760859zm9.920286,69.442005c0,5.475998 -4.464129,9.920286 -9.920286,9.920286l-39.681146,0c-5.456158,0 -9.920286,-4.444288 -9.920286,-9.920286l0,-39.681146c0,-5.475998 4.464129,-9.920286 9.920286,-9.920286l39.681146,0c5.456158,0 9.920286,4.444288 9.920286,9.920286l0,39.681146zm-188.485442,-69.442005l-39.681146,0c-16.408154,0 -29.760859,13.352706 -29.760859,29.760859l0,39.681146c0,16.408154 13.352706,29.760859 29.760859,29.760859l39.681146,0c16.408154,0 29.760859,-13.352706 29.760859,-29.760859l0,-39.681146c0,-16.408154 -13.352706,-29.760859 -29.760859,-29.760859zm9.920286,69.442005c0,5.475998 -4.464129,9.920286 -9.920286,9.920286l-39.681146,0c-5.456158,0 -9.920286,-4.444288 -9.920286,-9.920286l0,-39.681146c0,-5.475998 4.464129,-9.920286 9.920286,-9.920286l39.681146,0c5.456158,0 9.920286,4.444288 9.920286,9.920286l0,39.681146zm-29.760859,-89.282578c5.475998,0 9.920286,-4.444288 9.920286,-9.920286l0,-39.681146c0,-16.408154 13.352706,-29.760859 29.760859,-29.760859l128.963724,0l0,69.442005c0,5.475998 4.444288,9.920286 9.920286,9.920286c5.475998,0 9.920286,-4.444288 9.920286,-9.920286l0,-69.442005l128.963724,0c16.408154,0 29.760859,13.352706 29.760859,29.760859l0,39.681146c0,5.475998 4.444288,9.920286 9.920286,9.920286c5.475998,0 9.920286,-4.444288 9.920286,-9.920286l0,-39.681146c0,-27.340309 -22.241282,-49.601432 -49.601432,-49.601432l-128.963724,0l0,-49.601432c0,-5.475998 -4.444288,-9.920286 -9.920286,-9.920286c-5.475998,0 -9.920286,4.444288 -9.920286,9.920286l0,49.601432l-128.963724,0c-27.36015,0 -49.601432,22.261123 -49.601432,49.601432l0,39.681146c0,5.475998 4.444288,9.920286 9.920286,9.920286zm39.681146,-178.565156l297.608593,0c16.408154,0 29.760859,-13.352706 29.760859,-29.760859l0,-39.681146c0,-7.638621 -2.976086,-14.56298 -7.737823,-19.840573c4.761737,-5.277592 7.737823,-12.201952 7.737823,-19.840573l0,-39.681146c0,-16.408154 -13.352706,-29.760859 -29.760859,-29.760859l-297.608593,0c-16.408154,0 -29.760859,13.352706 -29.760859,29.760859l0,39.681146c0,7.638621 2.976086,14.56298 7.737823,19.840573c-4.761737,5.277592 -7.737823,12.201952 -7.737823,19.840573l0,39.681146c0,16.408154 13.352706,29.760859 29.760859,29.760859zm-9.920286,-148.804296c0,-5.475998 4.464129,-9.920286 9.920286,-9.920286l297.608593,0c5.456158,0 9.920286,4.444288 9.920286,9.920286l0,39.681146c0,5.475998 -4.464129,9.920286 -9.920286,9.920286l-297.608593,0c-5.456158,0 -9.920286,-4.444288 -9.920286,-9.920286l0,-39.681146zm0,79.362291c0,-5.475998 4.464129,-9.920286 9.920286,-9.920286l297.608593,0c5.456158,0 9.920286,4.444288 9.920286,9.920286l0,39.681146c0,5.475998 -4.464129,9.920286 -9.920286,9.920286l-297.608593,0c-5.456158,0 -9.920286,-4.444288 -9.920286,-9.920286l0,-39.681146z"/>
  </g>
 </g>
</svg>