<svg width="526.04089" height="397.40039" xmlns="http://www.w3.org/2000/svg">
 <metadata id="metadata7">image/svg+xml</metadata>
 <defs>
  <filter color-interpolation-filters="sRGB" id="filter5275" height="1.476655" y="-0.238328" width="1.096557" x="-0.048278">
   <feGaussianBlur id="feGaussianBlur5277" stdDeviation="4.170345"/>
  </filter>
 </defs>
 <g>
  <title>background</title>
  <rect fill="none" id="canvas_background" height="402" width="582" y="-1" x="-1"/>
 </g>
 <g>
  <title>Layer 1</title>
  <g transform="matrix(0.3699387182979995,0,0,0.3699387182979995,48.79677583015376,196.13162405309356) " id="g3045">
   <g id="g16173" transform="matrix(0.9431181,0.1033962,-0.1033962,0.9431181,666.53154,-143.30056) ">
    <path fill="#555753" fill-rule="nonzero" stroke-width="8.4" id="path14129" d="m-310.977889,-255.640142c-0.29722,-0.00096 -0.58971,0.004 -0.88804,0.0129c-11.51144,-0.11059 -21.50571,9.55344 -23.08861,20.74632c-2.70293,14.23492 4.42923,28.92905 15.89434,37.27131c6.81451,5.74268 17.14748,8.57776 25.32802,4.04116c0.40422,-0.21229 0.7939,-0.43806 1.18403,-0.66924c7.83344,15.57868 17.51105,30.58464 31.7115,40.83629c5.66825,3.80931 12.85025,7.14499 19.8068,5.14797c5.48181,-2.50195 7.43207,-8.95907 7.83781,-14.51728c-9.83621,0.64297 -17.47666,-6.87045 -24.00244,-13.20455c-9.39467,-9.55841 -16.89136,-20.82985 -23.05002,-32.74109c2.16944,-5.01617 5.17305,-10.79879 5.05593,-16.17565c-0.23887,-7.50748 0.13891,-19.18107 -6.17135,-23.36935c-5.91317,-6.87146 -20.40421,-7.34911 -29.61797,-7.37876l0,-0.00003z"/>
    <path fill="#b4b4b4" fill-rule="nonzero" stroke-width="8.4" id="path13154" d="m-312.058959,-250.762442c-11.12765,0.021 -19.81924,8.41166 -20.51467,21.01659c-0.82412,14.93917 9.89379,30.15686 23.92522,33.97661c6.44707,1.75509 12.34064,-0.11973 16.92394,-4.1055c4.59244,9.78208 23.26483,46.4986 45.97138,49.02155c7.2803,0.97072 8.73866,-8.73868 8.73866,-8.73868c-11.35066,-0.53078 -31.29612,-19.08306 -45.70567,-46.72428c-0.29454,-0.565 -3.93292,3.92838 -4.22273,3.35587c1.92909,-5.6808 6.75504,-11.95603 7.2957,-18.01559c0.82413,-14.93919 1.05748,-23.03248 -12.97391,-26.85223c-2.19242,-0.59683 -17.37725,-2.93823 -19.43792,-2.93434z"/>
    <path fill="#8f5902" fill-rule="nonzero" stroke-width="4.407238" d="m-293.669989,-373.527192c-6.52499,0.01414 -11.51163,6.4507 -10.41807,12.77185c-8.3115,61.03776 -17.27166,122.06165 -24.98818,183.1344c2.55574,10.21019 18.50766,14.16921 24.90625,5.59375c3.61181,-12.85595 3.51254,-26.36361 6.08213,-39.50399c6.73275,-50.73495 14.65229,-101.45564 20.54287,-152.21476c-1.82396,-6.83645 -9.68912,-9.87589 -16.125,-9.78125z" id="rect2542"/>
    <rect fill="#fcaf3e" fill-rule="nonzero" stroke-width="4.407238" rx="17.946199" ry="6.019043" transform="matrix(0.9794735,0.2015728,-0.1368021,0.9905984,0,0) " y="-303.818997" x="-347.379289" height="199.23947" width="18.478729" id="rect8246"/>
    <path fill="#555753" fill-rule="nonzero" stroke-width="9.724613" id="path12134" d="m-324.864519,-263.477932c-6.54661,0.15583 -13.19693,6.29919 -12.78348,12.77984c-0.12014,3.06542 2.30423,6.27206 3.25973,8.88025c-5.9562,1.94105 -10.63842,9.0444 -8.84709,15.06884c1.01242,4.20528 4.83851,7.48883 7.76602,10.51658c-2.5305,6.72445 1.1641,14.76489 7.18879,17.72921c8.89883,5.03849 22.38416,4.15283 29.97956,-3.23767c4.55518,-4.60804 4.2005,-12.61147 -0.34751,-17.09127c-1.30952,-1.67824 -3.53319,-2.6952 -4.86483,-4.11837c0.0661,-2.25214 -1.17658,-4.49924 -1.72457,-6.39636c5.42341,-3.93024 6.23226,-11.79424 3.56495,-17.59319c-3.59069,-9.32819 -12.92413,-16.80222 -23.19157,-16.53786z"/>
    <path fill="#b4b4b4" fill-rule="nonzero" stroke-width="9.724613" id="path12147" d="m-317.159079,-257.780312c-4.42758,-2.34358 -11.44171,-2.52744 -14.06405,2.49769c-4.5742,14.41508 6.56712,16.62659 15.90114,22.88158c-5.70684,-0.50776 -10.85926,-5.21639 -14.00722,-5.8112c-4.5917,-0.8676 -8.43641,0.79849 -9.19638,8.5162c2.00228,12.06047 14.94576,12.47666 27.1705,13.29934c-5.73212,3.99209 -19.70269,0.15452 -20.00885,0.82513c-1.87147,4.09946 0.57649,9.44244 4.35959,11.74014c7.65722,5.15681 19.18818,5.72193 26.04755,-1.09899c4.76665,-4.48384 -1.69459,-17.47887 -7.28179,-13.59529c2.20185,-5.27204 0.81087,-10.72755 -4.78292,-12.81204c6.69286,0.53513 10.30142,-8.07273 7.8299,-13.19957c-1.90825,-5.80412 -6.37067,-10.70451 -11.96747,-13.24299z"/>
    <g stroke="#555753" stroke-width="8.400001" stroke-miterlimit="4" transform="matrix(0.3747361,0.2399862,-0.259102,0.4040961,802.97069,401.28447) " id="g12171">
     <path fill="#b4b4b4" fill-rule="nonzero" stroke="#555753" stroke-width="8.400001" stroke-miterlimit="4" stroke-dashoffset="0" id="path10190" d="m-2824.413488,87.910136c6.68716,23.458044 -1.167445,46.25901 -17.543832,50.927409c-16.376388,4.6684 -35.073115,-10.563606 -41.760275,-34.02165c-6.68716,-23.458044 1.167541,-46.259037 17.543928,-50.927437c16.376388,-4.6684 35.073019,10.563633 41.760179,34.021677z"/>
    </g>
    <path fill="#555753" fill-rule="nonzero" stroke-width="8.4" id="rect14141" d="m-304.314109,-360.535622c4.63415,-3.88682 19.57332,-3.23943 26.40529,2.44787l137.19735,14.81622l-12.27252,84.67525l-137.95244,-15.6511c-6.05562,-3.42323 -18.34266,-4.15233 -25.4125,-3.28734c2.84272,-27.64147 6.66514,-54.09595 12.03482,-83.0009z"/>
    <path fill="#ffffff" fill-rule="nonzero" stroke-width="8.4" id="rect15128" d="m-278.514359,-353.104592l131.21103,14.59471l-10.40889,74.19355c-43.18463,-5.42709 -87.05565,-9.13461 -130.2403,-14.56169l9.43816,-74.22657z"/>
    <path fill="#ffffff" fill-rule="nonzero" stroke-width="8.4" id="path15132" d="m-300.930779,-355.167592c-5.61573,26.08984 -6.4691,46.94449 -9.61113,71.38521c0,-1.85382 17.84793,1.03626 17.84793,2.40238c1.56408,0.67032 11.3696,-73.24824 9.73086,-73.95056c0,0 -12.13328,-5.67139 -17.96766,0.16297z"/>
   </g>
   <g id="g16185" transform="matrix(0.948769,0,0,0.948769,643.92167,-119.64613) ">
    <path fill="#8f5902" fill-rule="nonzero" stroke-width="10" id="path5302" d="m-14.441061,-127.102606c-6.49447,0.32579 -14.42112,0.0237 -18.9574,5.48259c-4.87732,7.39201 -3.10083,16.86338 -2.43242,25.18645c0.14385,2.70352 1.33055,5.63495 1.02055,8.16469c-8.51647,10.23315 -13.45953,15.6793 -21.71829,26.11601c8.22364,11.13265 21.22584,24.75116 34.68735,29.48979c1.07635,-9.9461 2.16981,-19.89091 3.16601,-29.84536c11.21128,16.25433 28.87923,26.68931 46.87097,34.00756c12.79215,4.89961 27.06201,8.15741 40.67028,4.84677c7.72483,-2.29879 14.18356,-9.60027 13.73221,-17.95357c0.0172,-9.84105 -4.311,-18.92972 -7.63187,-27.99209c-10.48484,-24.37337 -31.32952,-44.33557 -56.80329,-52.34779c-10.46588,-3.5125 -21.53067,-5.35227 -32.6041,-5.15505z"/>
    <path fill="#e9b96e" fill-rule="nonzero" stroke-width="10" id="path2207" d="m-49.516241,-64.589766l19.41501,-22.86656c0,0 -6.04022,-26.74954 0.86289,-32.78977c6.90311,-6.04022 88.01466,-9.92322 107.42966,73.777c6.9031,42.71297 -89.309,10.35465 -99.66367,-31.49546c0.8629,-4.74587 -3.45155,35.37846 -3.45155,35.37846c0,0 -15.532,-22.00367 -24.59234,-22.00367z"/>
    <path fill="#555753" fill-rule="nonzero" stroke-width="10" id="path5331" d="m117.681629,-285.763076c-23.18494,0.35032 -44.48409,14.2421 -57.49348,32.81866c-28.89341,3.02691 -37.33367,11.73449 -44.86106,33.8733c-12.43349,4.75148 -27.63005,12.77824 -23.23022,28.08219c-0.41743,4.56369 0.74142,9.32929 -1.22937,13.6304c-9.22045,36.64354 -7.74547,76.57651 7.10725,111.52852c2.74608,5.79708 6.52793,12.74705 13.46562,13.90065c9.97601,1.87889 19.5865,-3.39878 26.9484,-9.64078c4.97539,-4.20984 10.30156,-8.27097 16.70307,-9.94479c9.31689,-3.60389 20.75154,-12.79676 23.79553,-22.84229c3.08601,-14.63475 -4.62151,-19.23948 -17.58042,-21.31654c-16.11451,-1.70652 -33.21794,10.57242 -47.64008,-9.69141c6.33294,-11.63505 16.55513,-29.94667 23.68925,-41.12371c3.01746,4.64446 5.88246,9.77776 11.08958,10.63485c1.68464,17.74074 22.02713,17.02249 27.60297,13.86773c16.80821,18.7336 60.33277,17.10412 82.62832,14.40283c18.70543,-3.50333 39.0511,-11.95315 49.49955,-28.3896c26.02508,-66.23489 1.18193,-87.03056 -43.98299,-116.21224c-14.0188,-8.19485 -30.02172,-13.93737 -46.51192,-13.57777z"/>
    <path fill="#f8eda6" fill-rule="nonzero" stroke-width="10" id="path2209" d="m118.376599,-281.657576c-28.57275,0.40377 -42.09718,17.11967 -49.22218,26.46992c0,0 18.54068,-0.18103 38.79754,6.79885c-52.08221,-13.00441 -91.20402,16.25487 -85.88103,27.32286c12.55984,-5.19119 45.26445,0.63879 43.02417,1.63448c-20.7545,-0.0908 -74.09932,-1.8787 -68.50663,36.69216c-18.91478,63.45608 3.66086,122.63167 13.42334,126.29261c34.86511,8.08825 35.42855,-38.98595 59.17593,-46.70497c6.41354,2.31885 -11.33806,25.52066 -16.76952,28.32671c-1.6904,0.87331 4.42333,3.09488 10.74639,-5.66277c19.6839,-19.20835 12.99127,-34.47376 -11.46711,-31.11949c-7.41639,1.06484 -22.75067,1.86664 -28.57295,0.60892c-0.96871,1.35107 14.75891,5.18394 10.59569,8.40199c0,0 -11.01356,-3.43399 -13.26934,-8.80546c0,0 -0.69539,-0.49292 -1.02951,-0.75503c3.1699,11.83021 15.95579,19.39998 15.95579,19.39998c-14.36728,-1.43568 -25.83687,-26.85866 -26.57515,-32.63409c0,0 28.19802,-51.60669 28.19802,-47.33559c3.63477,12.44029 19.90249,17.86256 35.21212,10.43751c0.0701,-0.0129 -4.39659,7.34804 -19.29202,7.00124c5.45136,18.58356 25.98937,12.16873 41.24812,-5.30241c0,-0.00001 -2.10569,8.71515 -14.76181,16.74377c16.27558,13.39267 92.36791,28.68107 121.9297,-11.54432c-8.21302,1.17206 -62.71644,8.61635 -60.81041,-0.91377c12.35513,-19.21909 -12.35514,-82.36754 -12.35513,-82.36754c-5.37042,-8.10434 35.48565,-19.29196 55.72679,-14.4658c-1.20862,-1.00675 -2.36187,-1.9398 -3.3848,-2.75416c-24.46164,-19.474 -45.17791,-26.00524 -62.13601,-25.7656zm68.76403,31.29967c12.26629,15.01925 16.6258,75.10064 15.97158,92.40608c8.22555,-12.68272 12.11996,-30.40092 8.86738,-54.68432c-2.04665,-15.28002 -14.87117,-28.95035 -24.83896,-37.72176z"/>
    <path fill="#555753" fill-rule="nonzero" stroke-width="10" id="path2242" d="m-155.431101,-298.916146c-20.15027,0.46126 -37.99796,14.72378 -46.21593,32.57379c-5.75881,11.84616 -6.89684,25.75835 -4.87768,38.5583c-16.04417,5.56833 -29.12352,19.19108 -33.47471,35.67544c-19.24715,-2.14923 -39.04761,-3.17461 -58.08196,0.96525c-7.53017,1.5955 -14.73354,4.40054 -21.60863,7.76057c-5.01277,1.45429 -10.76614,0.74991 -15.04493,4.25994c-4.08263,2.76197 -5.63744,7.95248 -4.73613,12.66401c1.48541,9.09838 8.72565,15.82102 15.54687,21.37695c11.69224,8.99657 27.06474,12.79939 41.69857,10.54047c21.69322,-2.49642 40.95911,-13.8262 61.06779,-21.41556c8.4486,-2.55601 17.58679,-0.23789 26.08876,-2.76046c3.86967,-0.92807 7.63041,-2.46089 10.95089,-4.7041c25.20315,20.1809 23.06069,49.83226 15.36752,78.30932c-7.64437,-5.86922 -14.85112,-17.92721 -24.10618,-20.8837c-17.26609,4.92136 -22.76318,25.64036 -33.28859,41.716c4.72015,3.638 7.12265,1.34837 11.79659,5.04545c7.31926,-9.43582 14.16059,-19.88341 21.51935,-29.31611c7.76684,5.52905 16.77439,16.7816 23.05673,23.92556c8.12099,50.64182 51.67921,46.17421 92.26986,32.0136c7.14947,6.40636 17.09195,12.63738 27.13198,12.58607c9.26848,-1.22464 10.85935,-15.73015 13.52945,-28.82844c-3.95648,-5.23432 -3.73676,-5.99123 -8.86215,-9.18597c-5.43166,9.78265 -4.2625,13.45508 -9.77016,23.19567c-1.06251,-0.79879 -10.35872,-9.68332 -8.69996,-11.44389c22.41818,-47.29302 9.04814,-81.359 -29.2758,-113.0924c19.21187,-10.38291 42.56224,-9.74286 63.03171,-3.8304c1.14747,0.57099 3.86883,0.70916 3.92796,1.70172c-3.35968,4.49695 -6.44731,10.91429 -3.40796,16.33708c4.15101,6.35026 11.06105,10.09369 17.00117,14.55589c12.2713,8.07186 25.39057,15.16912 39.4592,19.53655c20.76931,-0.69721 20.45078,-11.95769 11.80173,-24.19546c4.21843,-2.13385 8.60052,-8.08862 2.9136,-19.76073c6.80214,-16.65715 -15.45408,-29.61515 -29.95292,-31.14512c-8.69722,-0.44779 -17.08934,2.45261 -25.36508,4.49551c-15.01643,-1.74806 -29.94819,-3.92108 -44.95661,-5.84157c18.66991,-12.6947 33.88472,-32.09801 37.37427,-54.85164c2.50631,-16.67939 -3.19196,-35.46766 -17.4811,-45.24091c-14.36415,-10.0003 -33.50004,-9.91318 -49.69292,-4.73475c-10.57488,3.09488 -20.55813,8.08474 -29.96819,13.65673c-8.24331,-11.78409 -21.87299,-20.66998 -36.66641,-20.21866z"/>
    <path fill="#b4b4b4" fill-rule="nonzero" stroke-width="10" id="path2161" d="m-155.405401,-294.784896c-28.13173,0.38588 -55.52927,32.58918 -46.03571,69.78075c-24.23649,6.06009 -35.27979,29.44414 -35.05769,37.38714c-64.06621,-7.93202 -77.47812,7.94308 -84.79993,9.16339c-1.8305,-0.00003 -21.33258,-0.61376 -11.57009,18.30104c38.43974,50.6428 98.09509,-1.99399 118.96962,-1.23552c17.93153,0.65153 23.36689,-4.6972 26.53779,-6.78245c12.69667,-13.86577 10.46582,-15.96896 15.70131,-23.95094l13.17881,-17.27144c3.33164,1.02511 -4.56193,18.50057 -10.82363,22.03332c-1.82864,5.04634 -14.12834,19.23583 -13.4748,19.88404c33.67457,27.21631 20.6764,62.5101 15.4358,97.86676c-0.4323,-0.36601 -0.94862,-10.99924 -1.37319,-11.3518c-14.06747,-11.68166 -23.80516,-20.94268 -23.80516,-20.94268c-9.15721,-2.04363 -20.54407,21.94175 -28.94684,36.34468l5.35867,2.2889l23.18543,-30.86643c0.00004,-0.00001 18.68681,19.40707 26.6188,29.16954c12.79934,59.16352 71.41668,34.41047 85.21266,29.22489c1.06801,-0.40144 -8.17281,-11.24199 -8.22493,-13.86881c10.11708,11.1984 20.79719,23.33956 37.63106,27.09885c8.69966,-0.00004 12.45303,-29.36312 12.45303,-29.36312c-1.09806,-2.44497 -2.71869,-4.05383 -4.6433,-5.17632l-9.97449,27.60862c-5.68288,-2.61048 -22.44433,-22.11745 -25.46439,-27.59826c0.2523,-0.45747 12.01261,9.5656 12.25492,9.11019c29.66202,-55.74742 -14.80601,-97.40618 -29.54034,-108.64439c-0.55498,-0.42329 -11.13889,5.62754 -11.60395,5.29143c-1.49051,-1.07721 7.58041,-8.13311 7.25323,-8.27705c34.77342,-24.31538 83.53207,-4.26473 81.09341,-3.65506c0,-0.00001 -10.57748,11.44804 -6.22904,16.5636c11.58709,13.63121 47.15429,30.77272 53.80917,31.66002c13.92465,0.041 13.96762,-7.64941 9.91582,-14.50415c-2.3309,-3.94337 -6.65974,-6.69714 -9.31972,-9.49227c17.77737,2.59382 14.0972,-13.28391 4.50859,-17.85571c0.0603,-0.6667 5.94701,0.46837 5.98412,-0.18875c-0.91142,-27.85203 -32.02849,-27.55997 -51.35882,-20.18522l-58.42947,-7.78631c74.93288,-41.33384 51.73456,-131.3037 -25.58542,-100.28248c-29.17584,8.28703 -41.11402,43.52936 -43.30545,73.11742c-0.49656,-2.12939 -2.06039,-10.99915 -2.30732,-13.02402c-27.55063,-16.541 -38.21685,-8.08436 -56.7804,5.62046c21.30367,-30.37307 44.37008,-18.60696 57.92757,-8.5585c-1.03112,-18.10467 7.62855,-32.41525 18.90595,-48.1078c-2.07505,-8.8882 -21.40996,-18.70841 -33.28168,-18.54556zm92.03288,32.21343c10.08405,0.0544 18.16917,5.10661 19.48507,19.03462c-9.53596,-30.39481 -59.70724,-3.24392 -66.39596,22.49664c19.84132,-9.01941 18.02389,23.59559 -0.69498,17.02691c1.89667,7.35141 9.30333,7.85934 22.32933,2.39381c-37.21683,20.77536 -34.38614,-19.89129 -16.92396,-41.22238c8.44838,-9.2003 27.46227,-19.80906 42.2005,-19.7296zm-67.55424,79.21441c17.30256,5.68703 21.99826,8.04277 48.00482,0c-14.00105,6.02595 -32.83692,11.08494 -39.60324,18.55784l3.59657,-8.4648l-11.99815,-10.09304z"/>
    <path fill="#8f5902" fill-rule="nonzero" stroke-width="10" id="path5290" d="m-298.158641,-101.645886c-7.0253,0.63161 -14.76018,0.16279 -20.88866,4.11709c-13.12032,10.51371 -16.97793,30.48697 -9.83184,45.59944c6.42537,14.48939 19.78069,24.34587 33.17834,32.04019c17.54973,9.63663 36.82159,15.80576 56.11306,20.9966c10.33407,2.52032 20.94721,4.81549 31.64733,4.28587c5.04119,-0.45858 10.88039,-3.49069 11.36413,-9.08617c0.76235,-6.63289 -3.24602,-12.40673 -5.12223,-18.5198c-3.30545,-8.37804 -6.92069,-16.63008 -10.45038,-24.91621c4.70664,-3.93323 9.41069,-7.86961 14.11829,-11.80172c-6.36347,-8.13079 -13.40083,-17.20119 -24.04103,-19.48507c-4.38582,-1.33768 -9.30819,2.02028 -9.72966,6.56366c-0.72455,1.96745 -1.25232,3.99702 -1.80179,6.02313c-13.91139,-21.5148 -38.36582,-36.90866 -64.55556,-35.81701z"/>
    <path fill="#555753" fill-rule="nonzero" stroke-width="10" id="path2259" d="m-238.171891,-189.302966c2.13686,4.30755 7.19304,7.72588 12.072,5.92017c8.23057,18.3803 33.8325,4.89754 38.07159,-10.92299c4.17978,-15.59907 5.89208,-36.08992 -14.49216,-30.46801c-13.90813,-18.7966 -43.38735,14.23617 -35.65143,35.47083z"/>
    <path fill="#ffffff" fill-rule="nonzero" stroke-width="10" id="path2168" d="m-235.722981,-213.405176c-7.06466,7.82668 -2.01747,34.06378 11.30309,26.66372c4.09124,20.74834 28.53101,5.97794 32.20094,-7.71845c7.37164,-27.51142 -3.72652,-29.9736 -11.38464,-25.73535c-7.29365,4.03658 -13.62915,11.82948 -19.78892,29.1402c1.68972,-11.45978 9.5256,-28.09105 17.69889,-31.53004c-4.79301,-9.44091 -24.89337,1.0604 -30.02936,9.17992z"/>
    <path fill="#000000" fill-rule="nonzero" stroke-width="10" id="path2173" d="m-204.221881,-196.137836c-2.03324,-0.10381 -3.91234,2.27996 -4.21911,5.30834c-0.30678,3.02839 1.06077,5.57063 3.09401,5.67444c2.03328,0.10381 3.91237,-2.27995 4.21919,-5.30835c0.01,-0.0945 -0.006,-0.18109 0,-0.27456c-0.39528,0.43507 -0.96703,0.73218 -1.68767,0.73218c-1.19914,0 -2.19398,-0.77417 -2.19398,-1.73894c0,-0.96477 0.99484,-1.73894 2.19398,-1.73894c0.59956,0 1.12568,0.18703 1.51886,0.50338c-0.4323,-1.8002 -1.49822,-3.08469 -2.92528,-3.15755z"/>
    <path fill="#000000" fill-rule="nonzero" stroke-width="10" d="m-225.309781,-203.263936c-1.65551,-0.0757 -3.14331,2.33375 -3.34137,5.36595c-0.19801,3.0322 0.95753,5.55515 2.61303,5.63082c1.65551,0.0757 3.14331,-2.33374 3.34136,-5.36594c0.006,-0.0946 -0.008,-0.181 -0.005,-0.27454c-0.31411,0.44048 -0.77409,0.74546 -1.36022,0.75542c-0.97531,0.0166 -1.79759,-0.74369 -1.81402,-1.70833c-0.0164,-0.96464 0.77957,-1.75246 1.75488,-1.76904c0.48766,-0.008 0.91877,0.17142 1.24396,0.4823c-0.38227,-1.79398 -1.27106,-3.06353 -2.43297,-3.11664l0.00035,0z" id="path2178"/>
    <path fill="#a40000" fill-rule="nonzero" stroke-width="10" id="path2292" d="m-169.371271,-187.273096c-1.30936,2.24082 -3.11992,6.2295 -4.75644,7.30448c15.92614,17.28763 17.95135,55.14537 41.09988,32.9874c17.85053,-21.87537 -16.0536,-42.85676 -31.5244,-45.9419c-3.55573,1.63185 -2.37845,2.43553 -4.81904,5.65002z"/>
    <path fill="#ef2929" fill-rule="nonzero" stroke-width="10" id="path2180" d="m-165.945811,-191.869596c-0.73501,0.12088 -1.42928,1.29001 -3.51355,4.76739c12.83999,-2.49321 18.87057,12.71828 17.2457,12.9214l-17.60989,-12.46937c-2.41691,3.14092 -4.32697,6.52957 -4.5763,6.52957c14.76068,6.90476 20.1548,40.41683 29.74086,35.65647c14.44887,-7.17519 18.00419,-31.72518 -20.28301,-47.28412c-0.0429,-0.0143 -0.94854,-0.13043 -1.00381,-0.12134z"/>
    <path fill="#000000" fill-rule="nonzero" stroke-width="10" d="m-311.920609,-195.326032c3.284624,18.189636 -3.609873,34.02398 -15.399281,35.367c-11.789425,1.343022 -24.009349,-12.313854 -27.293973,-30.50349c-3.284624,-18.189636 3.609873,-34.02398 15.399298,-35.367002c11.789408,-1.34302 24.009333,12.313856 27.293957,30.503492z" id="path2185"/>
    <path fill="#e9b96e" fill-rule="nonzero" stroke-width="10" id="path2205" d="m-234.126281,-58.939686c0,0 -21.8419,-48.88543 -79.22398,-36.80498c-7.33455,-1.29435 -55.32015,57.9998 71.18832,91.89765c39.68044,10.63233 42.71301,3.02013 41.41865,-3.45157c-1.29433,-6.47166 -16.39489,-40.98722 -16.39489,-40.98722l13.3748,-11.21754c0,0 -12.51188,-17.25778 -22.43511,-14.6691c-1.26508,1.26506 -3.58196,8.78831 -4.86714,13.79102c-0.17639,0.68657 5.11548,12.26901 4.95733,12.88992c-0.65437,2.5697 -8.01798,-11.44818 -8.01798,-11.44818z"/>
    <path opacity="0.6" fill="#c17d11" fill-rule="nonzero" stroke-width="10" id="path2282" d="m-316.275181,-86.635256c16.94408,-8.74193 37.4692,34.92572 63.83439,53.19775c21.47384,14.88216 44.57229,22.90443 43.5866,30.54258c-18.59933,7.52683 -150.06205,-31.19893 -107.42099,-83.74033z"/>
    <path opacity="0.4" fill="#ffffff" fill-rule="nonzero" stroke-width="10" d="m-330.437913,-200.316523c0,8.996444 -4.559167,16.289505 -10.18314,16.289505c-5.624014,0 -10.183181,-7.293061 -10.183181,-16.289505c0,-8.996449 4.559167,-16.28951 10.183181,-16.28951c5.623973,0 10.18314,7.293061 10.18314,16.28951z" id="path2303"/>
    <path opacity="0.4" fill="#ffffff" fill-rule="nonzero" stroke-width="10" filter="url(#filter5275)" id="path4251" d="m-309.221058,-181.174848c-0.312873,0.268333 -1.314833,8.627555 -0.363241,8.246803c16.173567,-6.471506 41.234261,-11.700667 71.324194,-12.742415c-5.960857,-1.490218 -45.982791,-7.684389 -70.960954,4.495612z"/>
    <path fill="#555753" fill-rule="nonzero" stroke-width="10" id="path5329" d="m-241.504021,-215.956476c0,0 -11.67334,12.66685 -0.24834,22.35326c-2.98043,-8.1962 -2.48371,-17.1375 0.24834,-22.35326z"/>
    <path fill="#ffffff" fill-rule="nonzero" stroke-width="10" id="path2186" d="m180.371049,-250.641046c-16.20312,0.24434 -32.78577,2.73371 -47.10394,10.59195c-0.86588,0.47553 -2.18664,1.65698 -1.13256,2.68982c7.8758,22.11751 15.31808,44.99229 15.08356,68.73828c-0.29107,4.26177 -1.24979,8.47834 -2.81851,12.43235c4.24082,1.4771 8.89555,0.98705 13.32037,1.29987c14.14189,0.0426 28.32612,-1.93114 42.23911,-3.6808c-0.2976,-1.92059 -0.23666,-3.87635 -0.1748,-5.85575c-0.47798,-23.29041 -2.96563,-46.68621 -8.74406,-69.22741c-1.74597,-5.67995 -3.57796,-11.83688 -7.96649,-16.08741c-0.77701,-0.56684 -1.72803,-0.9588 -2.70268,-0.9009z"/>
    <path fill="#555753" id="text2199" d="m158.623589,-165.432356c-0.69916,-2.66516 -0.36839,-7.54059 -0.36839,-7.54059c0,0 15.82029,-4.14915 12.31905,-4.81736c-4.53451,-1.13847 -9.069,-2.27699 -13.60349,-3.41548c-1.29293,-2.86387 0.58926,-7.4489 0.58926,-7.4489c0,0 21.35981,-0.0491 28.95423,-0.4851c1.88153,3.1286 -0.62608,5.18869 -0.62608,5.18869c-4.93615,0.28335 -16.86606,0.36105 -21.80221,0.64441c5.04088,1.26321 10.08179,2.5263 15.12269,3.78946c0.45729,6.64202 -9.24153,5.48796 -13.18781,8.7183c6.41188,-0.36814 14.66665,2.18695 22.73252,2.18695c4.00122,0.80024 1.16162,5.67958 0.0287,5.45299c-7.10445,0.40784 -23.87676,-1.44701 -30.15842,-2.27337l-0.00005,0zm21.13259,-40.71774c0.619,2.57514 -0.3002,5.64083 1.56463,7.80685c2.23104,0.61681 5.64429,1.25103 4.75938,4.62017c-3.08344,3.05602 -30.86241,-4.21172 -30.86241,-4.21172c-4.03646,-2.50989 0.0398,-6.19339 3.94294,-7.74443c0,0 17.60383,-4.75034 24.86299,-7.22837c1.559,3.22569 -0.44321,7.17328 -4.26753,6.7575zm-4.94025,7.30487c0.94369,-3.21011 0.0827,-5.91351 0.0827,-5.91351c-1.32791,0.47069 -13.17033,2.48309 -12.00337,3.67901c3.15076,0.6077 8.76992,1.62681 11.92068,2.2345l-0.00001,0zm-23.36016,-14.3325c-2.15581,-3.31414 4.93628,-5.49609 4.93628,-5.49609c7.2228,-0.41464 16.5026,-1.85775 23.7254,-2.27238c2.15582,3.31412 -3.49639,5.90748 -3.49639,5.90748c-7.2228,0.41463 -17.94249,1.44636 -25.16529,1.86099zm-0.66605,-11.31083c-3.67087,-8.17826 17.57623,-6.02181 22.95895,-6.43622c0.51796,-3.06081 -6.10085,-13.25481 -2.17851,-14.98618c4.66085,-0.11997 7.18515,18.81597 6.33595,19.96022c-8.49027,0.48734 -18.62613,0.97481 -27.11639,1.46218z"/>
    <path opacity="0.2" fill="#ffffff" fill-rule="nonzero" stroke-width="10" filter="url(#filter5275)" d="m-133.522405,-229.710386c-0.312873,0.268333 -0.763835,9.190216 -0.363241,8.246803c16.658917,-39.232994 42.447646,-64.725743 75.813728,-66.616861c-29.621933,1.057896 -61.87817,3.96414 -75.450487,58.370058z" id="path2225"/>
   </g>
  </g>
  <defs>
   <style>.cls-1{fill:#bbbdbf;}.cls-2,.cls-6,.cls-7{fill:none;}.cls-2,.cls-6{stroke:#2ce5b5;}.cls-2,.cls-3,.cls-6,.cls-7{stroke-miterlimit:10;}.cls-2,.cls-3{stroke-width:4px;}.cls-3,.cls-8{fill:#24aee4;}.cls-3,.cls-7{stroke:#fff;}.cls-4{fill:#4275f4;}.cls-5{fill:#fff;}.cls-6{stroke-width:6px;}.cls-7{stroke-width:2px;}</style>
  </defs>
  <g stroke="null" id="svg_37">
   <g stroke="null" transform="matrix(0.5885671713887306,0,0,0.5885671713887306,-1949.8149957794667,-1427.7797799612017) " id="svg_8">
    <ellipse stroke="null" id="svg_10" ry="6.29" rx="32.49" cy="3031.939578" cx="3594.435511" class="cls-1"/>
    <line stroke="null" id="svg_11" y2="2937.899578" x2="3639.815511" y1="3004.569578" x1="3549.055511" class="cls-2"/>
    <circle stroke="null" id="svg_12" r="11.59" cy="2933.059578" cx="3646.275511" class="cls-3"/>
    <line stroke="null" id="svg_13" y2="3008.739578" x2="3649.245511" y1="2924.279578" x1="3532.665511" class="cls-2"/>
    <line stroke="null" id="svg_14" y2="2970.389578" x2="3523.965511" y1="2970.389578" x1="3666.125511" class="cls-2"/>
    <circle stroke="null" id="svg_15" r="11.59" cy="2970.389578" cx="3523.965511" class="cls-3"/>
    <circle stroke="null" id="svg_16" r="8.26" cy="2970.389578" cx="3662.635511" class="cls-3"/>
    <circle stroke="null" id="svg_17" r="8.26" cy="3004.569578" cx="3549.055511" class="cls-3"/>
    <circle stroke="null" id="svg_18" r="13.41" cy="3008.739578" cx="3648.095511" class="cls-3"/>
    <circle stroke="null" id="svg_19" r="15.16" cy="2928.159578" cx="3539.115511" class="cls-3"/>
   </g>
   <g stroke="null" transform="matrix(0.5885671713887306,0,0,0.5885671713887306,-1949.8149957794667,-1427.7797799612017) " id="svg_7">
    <path stroke="null" id="svg_20" d="m3595.505511,3004.889578a34.49,34.49 0 1 1 34.46,-34.5a34.53,34.53 0 0 1 -34.46,34.5z" class="cls-4"/>
    <path stroke="null" id="svg_21" d="m3595.505511,2937.899578a32.49,32.49 0 1 1 -32.49,32.49a32.49,32.49 0 0 1 32.49,-32.49m0,-4a36.49,36.49 0 1 0 36.46,36.49a36.53,36.53 0 0 0 -36.49,-36.49l0.03,0z" class="cls-5"/>
    <rect stroke="null" id="svg_22" ry="11.58" rx="11.58" height="116.1" width="213.33" y="2743.909578" x="3490.775511" class="cls-6"/>
    <polyline stroke="null" id="svg_23" points="3493.3837890625005,2748.169500350952 3597.4338378906255,2801.959539413452 3700.9338378906255,2747.549627304077 " class="cls-6"/>
   </g>
   <g stroke="null" transform="matrix(0.5885671713887306,0,0,0.5885671713887306,-1949.8149957794667,-1427.7797799612017) " id="svg_6">
    <line stroke="null" id="svg_24" y2="2962.459578" x2="3593.295511" y1="2979.989578" x1="3583.175511" class="cls-7"/>
    <line stroke="null" id="svg_25" y2="2982.159578" x2="3586.375511" y1="2982.159578" x1="3602.925511" class="cls-7"/>
    <line stroke="null" id="svg_26" y2="2976.819578" x2="3606.015511" y1="2962.389578" x1="3597.675511" class="cls-7"/>
    <circle stroke="null" id="svg_27" r="6.17" cy="2982.159578" cx="3583.175511" class="cls-5"/>
    <circle stroke="null" id="svg_28" r="6.17" cy="2958.629578" cx="3595.505511" class="cls-5"/>
    <circle stroke="null" id="svg_29" r="6.17" cy="2982.159578" cx="3607.845511" class="cls-5"/>
    <path stroke="null" id="svg_30" d="m3580.785511,2870.529578l0,-31l8.66,0l0,-14.78a6.83,6.83 0 1 1 13.66,0l0,14.81l8.66,0l0,31l-30.98,-0.03z" class="cls-4"/>
    <path stroke="null" id="svg_31" d="m3596.265511,2820.419578a4.34,4.34 0 0 1 4.33,4.33l0,17.31l8.66,0l0,26l-26,0l0,-26l8.71,0l0,-17.31a4.34,4.34 0 0 1 4.33,-4.33m0,-5a9.34,9.34 0 0 0 -9.33,9.33l0,12.31l-8.66,0l0,36l36,0l0,-36l-8.66,0l0,-12.31a9.34,9.34 0 0 0 -9.33,-9.33l-0.02,0z" class="cls-5"/>
    <path stroke="null" id="svg_32" d="m3589.435511,2918.139578l0,-18.93a15.55,15.55 0 0 1 -8.66,-13.85l0,-11.15l31,0l0,11.16a15.55,15.55 0 0 1 -8.68,13.84l0,18.95l-13.66,-0.02z" class="cls-4"/>
    <path stroke="null" id="svg_33" d="m3609.245511,2876.689578l0,8.66a13,13 0 0 1 -8.66,12.2l0,18.09l-8.62,0l0,-18.09a13,13 0 0 1 -8.66,-12.2l0,-8.66l26,0m5,-5l-36,0l0,13.66a18,18 0 0 0 8.66,15.31l0,20l18.66,0l0,-20a18,18 0 0 0 8.66,-15.32l0,-13.65l0.02,0z" class="cls-5"/>
    <path stroke="null" id="svg_34" d="m3588.855511,2782.059578a4.25,4.25 0 0 1 -4.23,-3.69l-1.15,-8a28.78,28.78 0 0 1 -4.1,-2.38l-7.59,3a4.4,4.4 0 0 1 -1.55,0.29a4.25,4.25 0 0 1 -3.75,-2.2l-7.1,-12.28a4.3,4.3 0 0 1 1,-5.5l6.44,-5c-0.08,-0.86 -0.12,-1.64 -0.12,-2.38s0,-1.52 0.12,-2.38l-6.43,-5a4.28,4.28 0 0 1 -1,-5.52l7.12,-12.31a4.21,4.21 0 0 1 3.69,-2.16a4.26,4.26 0 0 1 1.56,0.3l7.62,3.06a29.54,29.54 0 0 1 4.09,-2.39l1.16,-8.08a4.24,4.24 0 0 1 4.22,-3.64l14.26,0a4.24,4.24 0 0 1 4.23,3.69l1.15,8a28.71,28.71 0 0 1 4.1,2.38l7.59,-3a4.4,4.4 0 0 1 1.55,-0.29a4.25,4.25 0 0 1 3.75,2.2l7.1,12.28a4.31,4.31 0 0 1 -1,5.5l-6.44,5c0.07,0.72 0.11,1.53 0.11,2.38s0,1.66 -0.11,2.38l6.43,5a4.29,4.29 0 0 1 1.08,5.45l-7.16,12.39a4.21,4.21 0 0 1 -3.69,2.16l0,0a4.26,4.26 0 0 1 -1.56,-0.29l-7.62,-3.06a29.58,29.58 0 0 1 -4.09,2.39l-1.16,8.08a4.23,4.23 0 0 1 -4.22,3.64l-14.3,-0.02zm7.11,-48.13a10,10 0 1 0 10,10a10,10 0 0 0 -10,-10z" class="cls-8"/>
    <path stroke="null" id="svg_35" d="m3603.115511,2708.259578a1.74,1.74 0 0 1 1.75,1.5l1.35,9.45a26.05,26.05 0 0 1 6,3.49l8.88,-3.57a1.82,1.82 0 0 1 0.62,-0.11a1.75,1.75 0 0 1 1.55,0.89l7.16,12.3a1.8,1.8 0 0 1 -0.43,2.28l-7.52,5.88a24.59,24.59 0 0 1 0,7l7.49,5.92a1.8,1.8 0 0 1 0.43,2.28l-7.1,12.34a1.73,1.73 0 0 1 -1.53,0.91a1.78,1.78 0 0 1 -0.65,-0.12l-8.88,-3.57a27.39,27.39 0 0 1 -6,3.49l-1.35,9.45a1.74,1.74 0 0 1 -1.75,1.5l-14.28,0a1.74,1.74 0 0 1 -1.75,-1.5l-1.35,-9.45a26,26 0 0 1 -6,-3.49l-8.88,3.57a1.82,1.82 0 0 1 -0.62,0.11a1.75,1.75 0 0 1 -1.55,-0.89l-7.13,-12.34a1.8,1.8 0 0 1 0.43,-2.28l7.52,-5.88a28.28,28.28 0 0 1 -0.25,-3.49a28.28,28.28 0 0 1 0.25,-3.49l-7.56,-5.9a1.76,1.76 0 0 1 -0.43,-2.28l7.13,-12.34a1.73,1.73 0 0 1 1.53,-0.91a1.78,1.78 0 0 1 0.65,0.12l8.88,3.57a27.39,27.39 0 0 1 6,-3.49l1.35,-9.45a1.74,1.74 0 0 1 1.75,-1.5l14.26,0m-7.12,48.13a12.48,12.48 0 1 0 -12.46,-12.48a12.49,12.49 0 0 0 12.46,12.48m7.13,-53.13l-14.24,0a6.75,6.75 0 0 0 -6.7,5.82l-1,6.76q-1,0.56 -2.09,1.22l-6.38,-2.56a6.81,6.81 0 0 0 -2.51,-0.48a6.74,6.74 0 0 0 -5.88,3.44l-7.11,12.3a6.78,6.78 0 0 0 1.66,8.71l5.4,4.22c0,0.42 0,0.83 0,1.23s0,0.81 0,1.23l-5.38,4.21a6.79,6.79 0 0 0 -1.74,8.61l0,0.05l0,0.05l7.11,12.3a6.81,6.81 0 0 0 8.23,3l0.08,0l0.08,0l6.37,-2.56q1,0.65 2.1,1.22l1,6.75a6.75,6.75 0 0 0 6.7,5.82l14.26,0a6.75,6.75 0 0 0 6.7,-5.82l1,-6.76q1,-0.56 2.09,-1.22l6.38,2.56a6.81,6.81 0 0 0 2.51,0.48a6.74,6.74 0 0 0 5.88,-3.44l7.11,-12.3l0,-0.05l0,-0.05a6.78,6.78 0 0 0 -1.72,-8.6l-5.4,-4.22c0,-0.4 0,-0.81 0,-1.23s0,-0.83 0,-1.23l5.38,-4.21a6.79,6.79 0 0 0 1.74,-8.61l0,-0.05l0,-0.05l-7.11,-12.3a6.81,6.81 0 0 0 -8.23,-3l-0.08,0l-0.08,0l-6.37,2.56q-1,-0.65 -2.1,-1.22l-1,-6.75a6.75,6.75 0 0 0 -6.7,-5.82l0.04,-0.01zm-7.09,48.12a7.48,7.48 0 1 1 7.48,-7.48a7.49,7.49 0 0 1 -7.52,7.49l0.04,-0.01z" class="cls-5"/>
    <circle stroke="null" id="svg_36" r="9.5" cy="2742.929578" cx="3596.265511" class="cls-5"/>
   </g>
  </g>
 </g>
</svg>